<svg height="464pt" viewBox="-24 0 464 464" width="464pt" xmlns="http://www.w3.org/2000/svg">
    <path d="m311.980469 256c57.441406 0 104 46.558594 104 104s-46.558594 104-104 104c-52 0-95.117188-38.160156-102.800781-88-.796876-5.199219-1.199219-10.558594-1.199219-16 0-42.238281 25.199219-78.640625 61.359375-94.878906 13.042968-5.839844 27.441406-9.121094 42.640625-9.121094zm0 0"
          fill="#99b6d1"/>
    <path d="m251.660156 189.121094c6.800782 24.800781 16.640625 50.078125 17.679688 76-36.160156 16.238281-61.359375 52.640625-61.359375 94.878906 0 5.441406.402343 10.800781 1.199219 16-54.878907 36.320312-133.917969 33.519531-180.878907-25.359375-84.398437-105.839844 38.878907-257.28125 122.800781-324 4.320313-3.441406 33.359376-26.640625 41.359376-26.640625-2.160157 0-12.320313 23.761719-13.839844 26.640625-1.519532 2.960937-2.960938 5.917969-4.398438 8.960937-.882812 1.839844-1.679687 3.679688-2.480468 5.519532-14 32-20.878907 69.4375-.402344 100.320312 1.683594 2.480469 19.761718 22.878906 19.761718 23.277344 1.441407-2.558594 6.160157-11.519531 7.359376-14.160156 4.878906-11.117188 8.878906-23.117188 17.761718-31.757813 10.078125-9.839843 25.679688-18.320312 40.238282-16.242187-2 7.203125-6.320313 13.921875-8.238282 21.441406-1.761718 6.960938-2.640625 14.160156-2.800781 21.441406-.320313 14.796875 2.398437 29.4375 6.238281 43.679688zm-84.558594 191.597656c19.601563-20.71875 24.960938-59.117188 15.359376-86.078125-6.878907-19.199219-20.398438-34.640625-33.199219-50.160156-13.039063-15.839844-20.800781-31.519531-29.761719-49.441407-11.519531 17.519532-26.078125 34.882813-36.078125 53.441407-21.679687 40.558593-23.679687 96.558593 8.320313 132.480469 21.121093 23.597656 56 20.238281 75.359374-.242188zm0 0"
          fill="#ef6060"/>
    <path d="m182.460938 294.640625c9.601562 26.960937 4.242187 65.359375-15.359376 86.078125-19.359374 20.480469-54.238281 23.839844-75.359374.242188-32-35.921876-30-91.921876-8.320313-132.480469 10-18.558594 24.558594-35.921875 36.078125-53.441407 8.960938 17.921876 16.722656 33.601563 29.761719 49.441407 12.800781 15.519531 26.320312 30.960937 33.199219 50.160156zm0 0"
          fill="#f49d5d"/>
    <path d="m228.03125 254.152344c-2.027344-11.144532-5.679688-23.199219-9.226562-34.855469l-1.589844-5.359375c-1.425782-4.769531-2.847656-9.539062-4.152344-14.304688-2.039062-7.703124-3.480469-13.90625-4.535156-19.585937l15.71875-2.949219c.992187 5.285156 2.351562 11.132813 4.273437 18.390625 1.246094 4.582031 2.636719 9.222657 4.023438 13.871094l1.589843 5.34375c3.65625 12.039063 7.457032 24.542969 9.648438 36.59375zm0 0"
          fill="#e3e1db"/>
    <path d="m367.980469 352h-16v-32h-32v-16h48zm0 0" fill="#3b668f"/>
    <path d="m250.324219 410.339844 104-104 11.3125 11.3125-104 104zm0 0" fill="#3b668f"/>
    <path d="m271.980469 360c-13.230469 0-24-10.769531-24-24s10.769531-24 24-24c13.234375 0 24 10.769531 24 24s-10.765625 24-24 24zm0-32c-4.414063 0-8 3.585938-8 8s3.585937 8 8 8c4.417969 0 8-3.585938 8-8s-3.582031-8-8-8zm0 0"
          fill="#3b668f"/>
    <path d="m335.980469 424c-13.230469 0-24-10.769531-24-24s10.769531-24 24-24c13.234375 0 24 10.769531 24 24s-10.765625 24-24 24zm0-32c-4.414063 0-8 3.585938-8 8s3.585937 8 8 8c4.417969 0 8-3.585938 8-8s-3.582031-8-8-8zm0 0"
          fill="#3b668f"/>
    <g fill="#f49d5d">
        <path d="m295.980469 120h48v16h-48zm0 0"/>
        <path d="m311.980469 104h16v48h-16zm0 0"/>
        <path d="m335.980469 72h64v16h-64zm0 0"/>
        <path d="m359.980469 48h16v64h-16zm0 0"/>
    </g>
</svg>
