<svg id="Pastrack" xmlns="http://www.w3.org/2000/svg" viewBox="0 0 965.08393 965.08393"><defs><style>.cls-1{fill:#ffe43c;}</style></defs><title>loading</title><circle id="Circle" class="cls-1" cx="482.54197" cy="482.54197" r="482.54197"/><g id="Title"><path d="M787.60989,759.23273c5.07888,20.72289,1.21753,27.32578-18.46019,31.73506-1.09775,6.5231-2.21272,13.14835-3.36743,20.00894,15.0929,4.86831,32.38129-.8271,41.83928-13.38535,9.0885-12.06745,8.61173-34.3256-1.27057-48.50279C800.10113,752.47157,793.80988,755.87684,787.60989,759.23273Z" transform="translate(-38.5 -38.95803)"/><path d="M542.10114,812.20968c-.93315,8.3978-5.63638,13.746-12.34242,17.22582-7.43638,3.85875-14.21085-.04749-20.871-3.23854l-12.691,17.78481c16.53419,12.33266,37.30883,14.65172,50.09325,5.93324,12.91946-8.81058,20.14817-25.56477,16.38707-38.42123C556.03294,811.72492,549.32145,811.95849,542.10114,812.20968Z" transform="translate(-38.5 -38.95803)"/><path d="M604.88451,675.644a4.051,4.051,0,0,0,.68065-3.28438q-2.95479-14.27517,10.94812-20.24523a4.0839,4.0839,0,0,0,2.28091-2.45136c.937-6.48082,1.62468-12.99747,2.44788-19.97511-13.60815.56627-24.75778,4.31009-31.47713,16.6275-7.28389,13.35234-8.80206,26.66056.20944,40.64677,2.10347-1.46694,3.83527-2.58882,5.47261-3.83473C598.6433,680.69521,601.87593,678.29483,604.88451,675.644Z" transform="translate(-38.5 -38.95803)"/><path d="M445.70426,634.33156c1.15329.40864,3.08355.64859,3.77376.012,4.53762-4.18529,8.83373-8.6326,13.34462-13.13007-12.43135-10.65427-25.61811-11.22344-39.72871-5.89544-13.318,5.02878-18.812,15.55908-21.07827,29.41618,6.667.06938,12.59525.33133,18.49888.05908a6.49682,6.49682,0,0,0,4.51793-2.79406A16.99991,16.99991,0,0,1,445.70426,634.33156Z" transform="translate(-38.5 -38.95803)"/><path d="M455.50663,742.20369a4.12,4.12,0,0,0-2.70472-2.48626c-7.18581-.52108-14.39281-.74873-22.3201-1.10154,1.2,6.10541,2.2998,11.70039,3.47308,17.66965,8.04609-1.766,15.53871-3.4106,23.61685-5.1838C456.83741,747.77354,456.408,744.9101,455.50663,742.20369Z" transform="translate(-38.5 -38.95803)"/><path d="M708.8572,692.4706a3.54494,3.54494,0,0,0,1.65189,2.79755c2.86066,1.273,5.89208,2.16191,9.14919,3.29852,2.7639-7.72211,5.34284-14.92734,8.102-22.63615-5.77645-1.96158-11.14425-3.78434-16.95831-5.75863C710.07685,678.1317,709.35421,685.29329,708.8572,692.4706Z" transform="translate(-38.5 -38.95803)"/><path d="M548.51547,753.92242c-3.14184-5.05332-5.89325-9.47863-8.90633-14.32494-6.78216,4.72672-13.0022,9.06165-19.45267,13.55716,2.83369,3.85207,5.265,7.15715,7.85134,10.673C534.93891,760.47988,541.47455,757.32314,548.51547,753.92242Z" transform="translate(-38.5 -38.95803)"/><path d="M721.674,769.03034c-2.41985-2.85457-5.22307-5.38413-8.07965-8.22509-5.47054,6.07572-10.46785,11.62563-16.058,17.834,4.79468,3.77116,8.96921,7.05471,13.28734,10.45106,3.82693-5.90574,7.286-11.08226,10.52729-16.39175C721.94623,771.72349,722.24829,769.708,721.674,769.03034Z" transform="translate(-38.5 -38.95803)"/><path d="M624.75262,715.62712c4.947,1.75764,9.258,3.28929,13.68977,4.86387,3.69361-6.93517,7.12633-13.38061,10.64552-19.98823-4.33777-2.18385-8.04954-4.05257-12.34419-6.21478C632.65424,701.56549,628.84032,708.35256,624.75262,715.62712Z" transform="translate(-38.5 -38.95803)"/><path d="M463.921,668.49226c1.66192,4.69832,3.0798,8.70683,4.603,13.01308,7.32518-2.81689,14.14611-5.4399,21.24148-8.16849-1.07548-4.76173-2.0524-9.08738-3.18508-14.10267C478.51054,662.53134,471.32137,665.46865,463.921,668.49226Z" transform="translate(-38.5 -38.95803)"/><path d="M705.18926,756.02772c.81539-.87086,1.3464-3.12587.80433-3.94255a71.616,71.616,0,0,0-6.14226-7.22795c-6.11618,4.57518-11.976,8.9585-18.28034,13.67433,3.06176,4.18755,5.83914,7.98632,8.97938,12.28133C695.97028,765.39291,700.6999,760.82281,705.18926,756.02772Z" transform="translate(-38.5 -38.95803)"/><path d="M505.62073,737.92915c2.84061,2.82109,5.31821,5.28162,8.27554,8.21858,6.36483-4.87831,12.40329-9.50649,18.99062-14.55538-4.00584-3.72194-7.53864-7.00431-11.22279-10.42715C516.00164,727.08193,510.9372,732.37385,505.62073,737.92915Z" transform="translate(-38.5 -38.95803)"/><path d="M688.1989,726.95335c-7.0912,3.65268-13.83663,7.12728-20.97408,10.80386,2.85315,4.07232,5.29978,7.56431,7.94994,11.34682,6.76578-4.0608,13.126-7.87808,19.7539-11.85607C692.52017,733.56381,690.4484,730.39459,688.1989,726.95335Z" transform="translate(-38.5 -38.95803)"/><path d="M489.73919,723.70452c3.35142,2.836,6.19661,5.24353,9.34507,7.90765,4.9678-6.319,9.546-12.14245,14.256-18.13359-3.6887-3.26581-6.87026-6.08259-10.3786-9.18876Z" transform="translate(-38.5 -38.95803)"/><path d="M662.11732,645.82435c-3.403,6.943-6.52777,13.31833-9.77253,19.93867,4.31743,2.2317,8.0848,4.17908,12.13482,6.27238,3.17934-5.92939,6.09962-11.37574,9.22271-17.2C669.85191,651.84057,666.24075,649.03166,662.11732,645.82435Z" transform="translate(-38.5 -38.95803)"/><path d="M460.84828,761.43024c-7.59133,2.15789-14.94275,4.24746-22.9314,6.51825,2.00363,4.44418,3.82107,8.47528,5.94253,13.18071,7.33284-3.52026,14.05153-6.74573,20.90349-10.03508C463.38015,767.68068,462.189,764.73988,460.84828,761.43024Z" transform="translate(-38.5 -38.95803)"/><path d="M433.61548,680.22814c-7.02832,2.35342-13.64236,4.56808-21.016,7.03714,2.18142,3.778,3.81492,7.09427,5.95364,10.04436a4.74233,4.74233,0,0,0,4.11571,1.52957c5.1476-1.64384,10.14624-3.75411,15.57354-5.84055C436.67946,688.6849,435.23384,684.695,433.61548,680.22814Z" transform="translate(-38.5 -38.95803)"/><path d="M729.43737,703.20757c3.08707,1.76006,5.82536,3.32128,9.14759,5.21544,4.31619-6.74573,8.35858-13.06377,12.551-19.61615-4.57613-2.74935-8.2216-4.93947-12.33337-7.40976C735.54734,688.97815,732.54455,695.97128,729.43737,703.20757Z" transform="translate(-38.5 -38.95803)"/><path d="M718.85058,794.20255c4.77865,2.31137,8.98334,4.34516,13.5354,6.54687,2.70528-7.08008,5.13885-13.44892,7.653-20.02881-3.36878-1.77875-6.4303-3.39533-9.972-5.26536C726.35131,781.66565,722.72447,787.72765,718.85058,794.20255Z" transform="translate(-38.5 -38.95803)"/><path d="M557.27749,776.95946c-1.82472-5.17747-3.379-9.58705-5.018-14.23764-7.14946,3.13829-13.41421,5.88828-19.77632,8.681,1.36917,3.81409,2.544,7.08665,3.81208,10.61873C543.22089,780.35072,549.89109,778.74153,557.27749,776.95946Z" transform="translate(-38.5 -38.95803)"/><path d="M760.524,725.415l8.29346,7.82928c5.68719-4.30122,10.98757-8.3099,16.25535-12.294-3.32276-3.784-6.29024-7.1633-9.47679-10.79232C770.4043,715.41348,765.59916,720.27759,760.524,725.415Z" transform="translate(-38.5 -38.95803)"/><path d="M492.31136,812.14522c-4.271,4.86636-8.11073,9.14362-11.79887,13.54776-.56109.66988-.92868,2.33-.51945,2.84871,2.49791,3.16626,5.24614,6.135,8.20527,9.50489,5.03638-6.50317,9.1895-11.86589,13.43477-17.3476C498.35662,817.69247,495.559,815.12529,492.31136,812.14522Z" transform="translate(-38.5 -38.95803)"/><path d="M801.75734,740.24465c-2.79105-3.17839-5.04191-6.06732-7.67911-8.54506a4.225,4.225,0,0,0-3.96368-.3259c-4.77468,2.91892-9.34466,6.17248-14.43832,9.61378,2.42481,3.503,4.73547,6.84107,7.2474,10.47C789.20642,747.717,795.06869,744.22678,801.75734,740.24465Z" transform="translate(-38.5 -38.95803)"/><path d="M478.73163,795.18189l-16.91509,12.98457c3.34571,3.81013,6.29633,7.17028,9.44323,10.754,4.93872-5.07414,9.48117-9.74107,14.223-14.613C483.16377,801.17285,481.04454,798.30823,478.73163,795.18189Z" transform="translate(-38.5 -38.95803)"/><path d="M755.24085,731.10239a3.80832,3.80832,0,0,0-1.15122-2.8868c-3.26622-2.96671-6.69267-5.757-10.27314-8.78952-.48571,5.28085-.41591,9.98468-1.43648,14.43856-1.893,8.26081,2.84717,12.16764,9.483,15.91206C753.05783,743.31765,754.25447,737.227,755.24085,731.10239Z" transform="translate(-38.5 -38.95803)"/><path d="M485.00262,790.57c6.291-.09871,12.57632-.55721,19.4876-.92729a56.6996,56.6996,0,0,0-3.75992-6.03645c-1.41448-1.71813-3.07125-4.27218-4.84708-4.47274-6.63515-.7498-13.3624-.685-20.55515-.94374,2.10661,3.34211,4.13446,6.78725,6.41918,10.05271C482.48658,789.29922,483.91055,790.58707,485.00262,790.57Z" transform="translate(-38.5 -38.95803)"/><path d="M562.51351,802.69125c-.869-5.115-1.63172-9.60343-2.43806-14.34925-7.06074,1.51485-13.56255,2.90981-20.21187,4.33641.81853,3.80717,1.5216,7.07772,2.3484,10.92375C549.06009,803.29483,555.55048,803.00366,562.51351,802.69125Z" transform="translate(-38.5 -38.95803)"/><path d="M743.22509,805.2353c5.05019,1.45641,9.39281,2.70889,14.04258,4.04985,1.23408-7.11918,2.34082-13.50275,3.4588-19.95163-3.85863-1.31357-7.13343-2.42842-10.61619-3.61406C747.81453,792.22654,745.64339,798.3808,743.22509,805.2353Z" transform="translate(-38.5 -38.95803)"/><path d="M745.70449,713.23838c2.96032,2.17072,5.37253,3.93966,8.01968,5.88078,5.03469-5.37159,9.83646-10.49447,15.11028-16.12109-3.54-2.91773-6.5829-5.42594-9.98818-8.23266C754.28848,701.17217,750.06474,707.10931,745.70449,713.23838Z" transform="translate(-38.5 -38.95803)"/><path d="M472.62391,785.83651c-1.17068-2.35076-2.71315-4.51633-4.21149-6.90589-6.81422,3.6709-13.11094,7.06293-19.89325,10.71673,2.55913,3.76926,4.82026,7.09942,7.26553,10.701,5.783-4.19494,10.9944-7.89677,16.07957-11.76457A2.97753,2.97753,0,0,0,472.62391,785.83651Z" transform="translate(-38.5 -38.95803)"/><path d="M621.67744,689.19344c-4.73807,5.32445-8.56417,11.46026-12.984,17.66852,3.37363,1.94165,6.22092,3.58041,9.29362,5.34888,4.20712-7.34174,8.10041-14.13609,12.80282-22.34219C626.98568,689.50449,622.77306,687.96219,621.67744,689.19344Z" transform="translate(-38.5 -38.95803)"/><path d="M484.19176,652.05385c-1.46842-3.408-2.75307-6.38943-4.247-9.85652-7.41594,3.998-14.2615,7.68852-21.28317,11.4741,1.034,2.83754,1.885,5.1731,2.8459,7.81042C469.23892,658.2685,476.44167,655.27494,484.19176,652.05385Z" transform="translate(-38.5 -38.95803)"/><path d="M726.24177,709.80034c-.14863,1.25644-.29887,2.19243-.36369,3.13427-.30815,4.47641-.71951,8.952-.80261,13.43337a5.417,5.417,0,0,0,1.55418,3.62412c2.17977,2.05219,4.671,3.77364,7.63008,6.0934.579-4.19186,1.08864-7.79154,1.57163-11.39478,1.44227-10.76127,1.43843-10.7624-8.66573-14.87A4.42207,4.42207,0,0,0,726.24177,709.80034Z" transform="translate(-38.5 -38.95803)"/><path d="M456.93284,646.99219c6.22007-3.50038,12.46152-7.01277,19.49727-10.97225-2.70105-3.46939-4.98859-6.40759-7.403-9.50873-3.982,3.49665-7.4941,6.48045-10.89272,9.58834C452.93093,640.85779,452.96426,640.89411,456.93284,646.99219Z" transform="translate(-38.5 -38.95803)"/><path d="M656.10631,641.83394c-3.06507-1.75179-5.746-3.28408-8.81058-5.03564-3.18614,7.43336-6.1341,14.31069-9.24009,21.55685,2.63472,1.39478,4.97607,2.63431,7.75807,4.10705C649.42174,655.23088,652.68956,648.68175,656.10631,641.83394Z" transform="translate(-38.5 -38.95803)"/><path d="M610.57531,679.985,594.68323,693.94c2.66229,2.74733,5.35538,5.52637,8.32753,8.59339,4.74937-6.37376,9.09336-12.20343,13.56829-18.209C614.44654,682.783,612.80127,681.59382,610.57531,679.985Z" transform="translate(-38.5 -38.95803)"/><path d="M515.2367,806.33825c-2.52317-3.26279-4.23932-7.80018-6.81756-8.35875-6.3996-1.38662-13.19283-.95681-19.87287-1.25869C495.71389,808.33881,500.19074,810.05062,515.2367,806.33825Z" transform="translate(-38.5 -38.95803)"/><path d="M428.1076,665.07527c-7.63754,2.14316-14.91537,4.18529-22.63148,6.35051,1.57148,3.53292,2.827,6.35537,4.16462,9.36253,7.50511-2.65554,14.36377-5.08242,21.4566-7.59211C429.99128,670.19182,429.1247,667.838,428.1076,665.07527Z" transform="translate(-38.5 -38.95803)"/><path d="M474.58114,770.405c5.72528.30791,11.47895.08724,18.69551.05678-2.86624-3.99958-4.51432-8.8838-7.37436-9.7455-5.731-1.72665-12.12453-1.25378-18.85284-1.73209,1.34791,3.54368,2.01736,6.25215,3.38623,8.54258A6.247,6.247,0,0,0,474.58114,770.405Z" transform="translate(-38.5 -38.95803)"/><path d="M760.49728,735.57016a4.93184,4.93184,0,0,0-.23824.92647c-.26953,4.157-.51753,8.31528-.78162,12.4726-.52,8.19025.12042,9.2692,7.81125,13.10346C772.32968,748.6929,770.30719,740.7985,760.49728,735.57016Z" transform="translate(-38.5 -38.95803)"/><path d="M725.62446,760.26258c6.7685-.69922,13.34868-3.222,20.00356-5.02026l.12568-1.81182c-3.425-1.61179-6.95362-4.732-10.25238-4.50551-5.9411.408-11.74457,2.821-19.14576,4.81041C720.12749,756.53242,723.09561,760.52383,725.62446,760.26258Z" transform="translate(-38.5 -38.95803)"/><path d="M510.37158,784.00157c1.93627-4.50877,3.82959-8.87517,5.68855-13.25606,2.87213-6.76861,2.2472-9.104-4.05851-14.3402-1.79577,4.3638-3.55468,8.60156-5.28494,12.85114C503.89515,776.18606,504.343,778.08376,510.37158,784.00157Z" transform="translate(-38.5 -38.95803)"/><path d="M422.59622,653.0449c-6.9019-.62778-13.845-.80344-21.33292-1.15287.66991,4.58559,1.21184,8.29529,1.81744,12.44066,7.56694-2.38548,14.53641-4.58252,22.85279-7.20423C424.51991,655.32469,423.653,653.141,422.59622,653.0449Z" transform="translate(-38.5 -38.95803)"/><path d="M764.0865,768.56906c-3.89589-2.43617-7.04028-6.0623-9.86243-5.8269-6.17775.51522-12.19208,2.98936-18.39319,4.69644C744.54369,778.17852,753.5197,771.89809,764.0865,768.56906Z" transform="translate(-38.5 -38.95803)"/><path d="M628.49178,630.14005c-.59478,7.29224-1.30222,13.95546-1.53544,20.63518-.04323,1.23728,1.8262,2.54133,3.39351,4.56365,3.72679-7.93042,6.89093-14.66367,10.33211-21.98637Z" transform="translate(-38.5 -38.95803)"/><path d="M523.67454,776.14206c-1.726,4.06617-3.00409,8.36976-5.254,12.08484-3.68693,6.08814-.889,10.352,3.13853,15.0913C525.63286,794.3445,533.60522,786.24574,523.67454,776.14206Z" transform="translate(-38.5 -38.95803)"/><path d="M500.09217,742.60618c-7.79353,12.38613-7.95452,18.43618-.75973,22.161.2205-.42385.45815-.84083.64582-1.27916q1.89029-4.41422,3.76127-8.837C506.752,747.505,506.74874,747.50365,500.09217,742.60618Z" transform="translate(-38.5 -38.95803)"/><path d="M728.52339,741.72745c-6.93588-8.1013-13.08832-8.4007-23.71846-.90074,2.64619,1.92136,5.20154,5.29718,7.43152,5.09443C717.6715,745.42691,722.95579,743.27418,728.52339,741.72745Z" transform="translate(-38.5 -38.95803)"/><path d="M715.70318,720.64347c.30082-2.69357.53279-5.19959.87235-7.69106.33944-2.49058.78623-4.96637,1.17718-7.39361-3.44916-1.064-5.87439-1.81212-8.68211-2.67825C707.72024,716.85806,706.74527,714.69633,715.70318,720.64347Z" transform="translate(-38.5 -38.95803)"/><path d="M466.40127,749.25325c4.07555,1.28116,8.735.70479,13.36145.89518-3.10806-8.37887-5.44345-9.597-17.33163-8.72813C463.84593,744.414,464.54627,748.67013,466.40127,749.25325Z" transform="translate(-38.5 -38.95803)"/><path d="M524.47159,823.04028c-3.40031-10.25587-12.03155-6.282-18.29438-8.16092C510.95234,820.26118,516.4295,823.99182,524.47159,823.04028Z" transform="translate(-38.5 -38.95803)"/><path d="M782.42349,774.27553c1.70737-7.99123-1.32493-13.92346-5.596-19.69706C774.4797,765.22281,775.7931,770.19208,782.42349,774.27553Z" transform="translate(-38.5 -38.95803)"/><path d="M696.516,723.39039c1.3021,2.87911,2.45273,5.42322,3.69787,8.17641,3.8707-1.49834,7.17791-2.77868,10.63754-4.11786C706.98517,722.072,702.54164,720.8176,696.516,723.39039Z" transform="translate(-38.5 -38.95803)"/><path d="M484.824,731.648c-3.03969,7.98857-2.72513,9.56617,2.73758,14.31282,1.6562-3.29053,3.28044-6.51749,4.9646-9.86344-1.88809-1.19954-3.3493-2.17119-4.85554-3.06719C486.86883,732.55306,485.989,732.20688,484.824,731.648Z" transform="translate(-38.5 -38.95803)"/><path d="M533.40548,802.453c-6.76122,8.94176-7.04879,11.10172-2.22891,16.74313C534.64217,814.78153,535.52427,808.1551,533.40548,802.453Z" transform="translate(-38.5 -38.95803)"/><path d="M777.902,780.82282c-5.23052-5.64336-8.66856-5.5747-18.01388.1675C766.07954,782.43762,771.70114,783.7176,777.902,780.82282Z" transform="translate(-38.5 -38.95803)"/><path d="M443.534,672.8735c-5.56159,3.42645-5.58058,3.57639-1.51088,11.1239C446.15318,680.94865,447.15461,677.411,443.534,672.8735Z" transform="translate(-38.5 -38.95803)"/><path d="M644.02821,674.69934c3.61577,3.72224,7.19251,3.8733,11.0884-.2852C647.71673,669.88449,647.71673,669.88449,644.02821,674.69934Z" transform="translate(-38.5 -38.95803)"/><path d="M645.74871,690.403c.14952-4.615-1.39508-7.96171-6.50258-8.613C638.20285,688.28407,639.045,689.39737,645.74871,690.403Z" transform="translate(-38.5 -38.95803)"/><path d="M459.325,676.89005c-1.76386-7.97981-2.07757-8.24283-8.12824-7.28378C451.26281,674.71253,454.58634,676.36791,459.325,676.89005Z" transform="translate(-38.5 -38.95803)"/><path d="M627.78681,659.157c-4.47907-.18767-7.82993-.32809-11.18079-.46856C619.75123,663.56178,623.09269,663.91169,627.78681,659.157Z" transform="translate(-38.5 -38.95803)"/><path d="M431.40993,642.79672c-.42414,4.11024-.76242,7.38924-1.10083,10.66818C435.94732,649.4652,436.01711,648.15807,431.40993,642.79672Z" transform="translate(-38.5 -38.95803)"/><path d="M630.9778,683.17018c-.80841-3.58538.0818-7.4417-4.74564-8.04659C623.82089,679.796,626.08974,681.84963,630.9778,683.17018Z" transform="translate(-38.5 -38.95803)"/><path d="M610.57886,668.02477c2.40967,3.1167,4.39153,5.68027,7.117,9.20549C618.14181,669.91028,617.15643,668.69489,610.57886,668.02477Z" transform="translate(-38.5 -38.95803)"/><path d="M453.62892,660.90861c-.57289-4.75724-2.48077-7.17182-7.43756-5.32084C446.51083,660.44532,450.188,660.30035,453.62892,660.90861Z" transform="translate(-38.5 -38.95803)"/><path d="M449.63067,647.35156c-3.319-3.1959-5.69183-5.48071-8.9918-8.65828C441.02208,644.94017,443.0617,647.61162,449.63067,647.35156Z" transform="translate(-38.5 -38.95803)"/><path d="M225.34626,403.59391A45.04612,45.04612,0,0,0,209.44737,391.221a66.70419,66.70419,0,0,0-23.1393-5.90695q-13.36786-1.19158-30.55872,2.37986a141.07974,141.07974,0,0,1-1.8685-15.38283,69.75831,69.75831,0,0,1,.7704-16.85651,40.88,40.88,0,0,1,5.49406-14.80641,20.38222,20.38222,0,0,1,12.14773-8.95155q6.52811-1.89438,11.28022-.55991a17.25261,17.25261,0,0,1,7.75218,4.35646,16.986,16.986,0,0,1,4.26294,7.374,20.99935,20.99935,0,0,1,.78168,8.38425,16.85959,16.85959,0,0,1-2.69286,7.38752,10.66016,10.66016,0,0,1-6.128,4.49173q-4.35563,1.26389-7.00173.2624a9.23932,9.23932,0,0,1-4.15124-2.92409,12.09325,12.09325,0,0,1-2.5126-5.40515q-1.958.5682-2.81823,3.29517a17.46415,17.46415,0,0,0-.61163,6.4293,21.71653,21.71653,0,0,0,1.92925,7.462,17.7259,17.7259,0,0,0,5.08473,6.5457,18.65973,18.65973,0,0,0,8.63648,3.7456q5.23248.9594,12.63116-1.18807a23.61206,23.61206,0,0,0,12.58665-8.25294,27.39269,27.39269,0,0,0,5.53253-13.04819A31.38518,31.38518,0,0,0,215.3471,345.509a29.24644,29.24644,0,0,0-8.25295-12.58661,31.92526,31.92526,0,0,0-14.70434-7.175q-8.958-2.00119-20.92405,1.4709a49.58438,49.58438,0,0,0-19.03725,10.00737,54.10605,54.10605,0,0,0-12.43367,15.64A62.81111,62.81111,0,0,0,133.58,372.53966a92.40908,92.40908,0,0,0-.7827,22.05033,105.343,105.343,0,0,0-25.00965,14.80707A81.26771,81.26771,0,0,0,88.3226,431.56045a78.27046,78.27046,0,0,0-10.09823,28.8823q-2.40738,16.03779,2.96079,34.52973,4.35714,15.01486,10.97512,23.5929,6.61571,8.58108,14.135,12.53116a31.785,31.785,0,0,0,14.72223,3.9852,32.993,32.993,0,0,0,12.89095-2.32562,20.35219,20.35219,0,0,0,8.67346-6.29143q2.98428-3.92982,1.85047-7.85087a42.32441,42.32441,0,0,1-19.55506-2.34662,48.11793,48.11793,0,0,1-8.09319-3.90388,35.58167,35.58167,0,0,1-7.9164-6.55,54.46514,54.46514,0,0,1-7.10566-9.85184,61.37406,61.37406,0,0,1-5.59619-13.59381A66.12695,66.12695,0,0,1,93.674,455.48755a68.229,68.229,0,0,1,7.15518-23.30973,67.3,67.3,0,0,1,14.20934-18.51456,76.81956,76.81956,0,0,1,18.38789-12.64995,137.67977,137.67977,0,0,0,4.12532,19.09282l-.1548.28045L180.273,568.13883a60.7314,60.7314,0,0,1,2.05475,15.21071,58.33082,58.33082,0,0,1-2.2305,17.51581,45.96325,45.96325,0,0,1-8.04264,15.78159,29.18049,29.18049,0,0,1-15.38018,10.00764q-9.5777,2.77938-17.11639.36652a30.71112,30.71112,0,0,1-12.71425-7.635,33.31314,33.31314,0,0,1-7.7546-12.49514,35.94957,35.94957,0,0,1-2.20571-14.10533,24.71957,24.71957,0,0,1,4.15-12.52885,19.27662,19.27662,0,0,1,11.17194-7.84242q7.83329-2.27307,12.094.61914a16.76817,16.76817,0,0,1,6.19339,7.52179,25.76287,25.76287,0,0,1,2.03075,9.43758q.09513,4.80555-.67466,6.212,7.803-2.26428,11.74918-7.302a21.01841,21.01841,0,0,0,4.53321-11.10675,27.35961,27.35961,0,0,0-9.2035-22.8095,29.10873,29.10873,0,0,0-12.16077-6.2618q-7.11109-1.82964-16.02591.758-13.05611,3.78874-20.30094,12.9689A42.9682,42.9682,0,0,0,101.467,582.75a50.1764,50.1764,0,0,0,1.66417,22.40187,46.21079,46.21079,0,0,0,11.56517,19.52867,45.1287,45.1287,0,0,0,20.83882,11.64728q12.66507,3.40256,29.1967-1.39479,14.5248-4.215,23.77453-12.44356a51.354,51.354,0,0,0,13.74825-19.44232,65.04362,65.04362,0,0,0,4.38786-24.984,106.555,106.555,0,0,0-4.47411-28.7823L185.6873,492.48649a99.54246,99.54246,0,0,0,23.5691-10.14222,63.13868,63.13868,0,0,0,17.67032-15.39078,47.62792,47.62792,0,0,0,9.2066-20.48421q2.22678-11.49444-1.81569-25.425A49.88323,49.88323,0,0,0,225.34626,403.59391Zm-13.226,47.95679a45.5954,45.5954,0,0,1-5.78768,17.2503,37.99489,37.99489,0,0,1-10.5278,11.5486,40.21967,40.21967,0,0,1-11.88563,6.0439l-25.95283-89.43418-.69466-2.39382q12.37978-1.46874,21.25753.90908a41.39816,41.39816,0,0,1,15.19334,7.38734,40.75159,40.75159,0,0,1,10.182,11.79074,64.386,64.386,0,0,1,5.95032,13.9627q3.72664,12.84183,2.26541,22.93534Z" transform="translate(-38.5 -38.95803)"/><path d="M351.43649,518.9409a2.0286,2.0286,0,0,0-2.30933-1.45358,7.12047,7.12047,0,0,1-5.45329-1.72026,9.20235,9.20235,0,0,1-2.91286-4.345l-18.24925-62.88735q-3.03087-10.44482-8.70181-15.75911a30.73973,30.73973,0,0,0-12.6194-7.30833,38.03154,38.03154,0,0,0-14.2907-1.27945,76.2294,76.2294,0,0,0-13.87,2.60973q-12.8425,3.72671-18.56024,8.80682-5.72368,5.08312-7.55362,9.74148a14.88438,14.88438,0,0,0-1.2118,8.01926q.62045,3.35886.68415,3.57653a11.49989,11.49989,0,0,0,5.56878,6.99506,11.76144,11.76144,0,0,0,16.011-4.50675q.04636-.08265.09133-.166a11.49955,11.49955,0,0,0,.95929-8.88941,11.72994,11.72994,0,0,0-3.99312-6.03713,10.8447,10.8447,0,0,0-6.7172-2.41564,13.05662,13.05662,0,0,1,4.212-4.99672,27.26144,27.26144,0,0,1,9.34991-4.36522q6.309-1.83076,10.47217-.09324a20.49741,20.49741,0,0,1,6.84687,4.49016,24.83988,24.83988,0,0,1,4.85261,7.77833l4.98154,17.16643a44.62761,44.62761,0,0,0-34.47931,8.42039A40.17116,40.17116,0,0,0,254.20392,481.842a39.69881,39.69881,0,0,0-5.0671,14.2471,35.02342,35.02342,0,0,0,1.02429,15.31792,34.302,34.302,0,0,0,7.304,13.38162,39.82753,39.82753,0,0,0,26.77566,13.40811,44.27248,44.27248,0,0,0,16.38178-1.67921,43.8247,43.8247,0,0,0,17.24812-9.66837l1.24813,4.301,30.89932-8.96666a2.00315,2.00315,0,0,0,1.54454-2.80743Zm-39.84342.503a18.90917,18.90917,0,0,1-3.74483,6.60875,12.89018,12.89018,0,0,1-4.79637,3.38995q-2.54765.977-4.07114,1.417a8.57552,8.57552,0,0,1-6.34945-.74134,21.3319,21.3319,0,0,1-6.48835-5.28707,48.21332,48.21332,0,0,1-6.01894-8.95128,64.79126,64.79126,0,0,1-7.04764-24.28638,48.22957,48.22957,0,0,1,.29236-10.78271,22.80763,22.80763,0,0,1,2.61866-8.04795,8.40051,8.40051,0,0,1,4.93376-4.13718q1.51966-.441,4.19727-.98238a12.993,12.993,0,0,1,5.866.29587,18.97885,18.97885,0,0,1,6.70184,3.5813q3.50547,2.74271,6.70184,8.86712L312.5062,508.363q.58239,6.88717-.9131,11.081Z" transform="translate(-38.5 -38.95803)"/><path d="M417.539,491.8549a37.9075,37.9075,0,0,0,5.3432-13.70054,32.96445,32.96445,0,0,0-.90366-15.30913q-2.84154-9.79215-8.46339-14.53059a31.81785,31.81785,0,0,0-12.3985-6.54706,58.21578,58.21578,0,0,0-14.12236-1.918q-7.34647-.10756-13.775-.72113a36.77274,36.77274,0,0,1-11.29329-2.73853q-4.86395-2.12748-6.56918-8.003a14.83283,14.83283,0,0,1,1.84766-12.33252q3.67687-6.02109,13.25331-8.8,6.528-1.89445,11.01323-1.07288a16.49654,16.49654,0,0,1,7.9521,3.82678,12.50049,12.50049,0,0,0-2.73737.32259,11.20807,11.20807,0,0,0-7.07257,5.70878,11.77989,11.77989,0,0,0-.896,9.10731,11.50077,11.50077,0,0,0,5.56893,6.99556,11.76136,11.76136,0,0,0,16.01093-4.50658l0-.00006q.04635-.08263.09138-.16608a11.50086,11.50086,0,0,0,.95911-8.88995,27.79918,27.79918,0,0,0-12.81459-16.92494q-9.53357-5.60461-25.19873-1.06253a46.37893,46.37893,0,0,0-14.61583,6.95082,36.05633,36.05633,0,0,0-9.5805,10.07508,29.97491,29.97491,0,0,0-4.28171,12.0729,32.20653,32.20653,0,0,0,1.11934,13.20814q2.83551,9.77134,8.34557,14.53139a33.43527,33.43527,0,0,0,12.23839,6.80718,58.21951,58.21951,0,0,0,13.91807,2.43472q7.18962.38553,13.509,1.023a37.21781,37.21781,0,0,1,11.04071,2.67988,10.98032,10.98032,0,0,1,6.29625,7.46944,14.048,14.048,0,0,1,.24063,6.52186,18.46052,18.46052,0,0,1-2.85326,6.8327,25.23774,25.23774,0,0,1-6.09311,6.23961,30.30277,30.30277,0,0,1-9.75452,4.5966q-9.35862,2.71591-15.13483.69065a21.92336,21.92336,0,0,1-9.25606-5.88075,13.48657,13.48657,0,0,0,5.32016-.36422,11.78273,11.78273,0,0,0-6.373-22.68731q-.09732.02738-.1942.05637a11.79371,11.79371,0,0,0-7.65841,6.941q-2.16439,3.9354-.95223,10.53938a23.25511,23.25511,0,0,0,6.44556,12.04894q5.23416,5.44314,14.67621,7.89175,9.43733,2.45307,23.58456-1.65373a43.81467,43.81467,0,0,0,13.93031-6.87345A40.79662,40.79662,0,0,0,417.539,491.8549Z" transform="translate(-38.5 -38.95803)"/><path d="M393.60116,358.5433a2.09435,2.09435,0,0,0,2.15454,1.734,7.57032,7.57032,0,0,1,5.56272,1.6885,8.80966,8.80966,0,0,1,3.02133,4.314l5.99889,20.6722-11.533,3.34675L401.142,398.35l11.533-3.34675,15.91268,54.83565a112.07358,112.07358,0,0,0,6.62374,17.54184,43.423,43.423,0,0,0,9.34455,13.09523,27.47525,27.47525,0,0,0,12.711,6.81q7.21242,1.68438,17.00384-1.15926a26.31478,26.31478,0,0,0,10.13974-5.30168,22.54051,22.54051,0,0,0,6.02006-8.11691,26.4963,26.4963,0,0,0,2.1387-9.704,32.41783,32.41783,0,0,0-1.28685-10.12521,12.44793,12.44793,0,0,0-5.72666-7.539,11.04735,11.04735,0,0,0-9.0616-1.14552,11.501,11.501,0,0,0-6.99562,5.56893,11.76281,11.76281,0,0,0,4.50906,16.01232h0q.08145.04569.16366.09a11.50083,11.50083,0,0,0,8.89.95911,9.56708,9.56708,0,0,0,1.49163-.55035q.62153-.297,1.42832-.76869a16.50556,16.50556,0,0,1-3.37325,4.63584,13.6001,13.6001,0,0,1-5.89985,3.24534,10.54945,10.54945,0,0,1-11.76379-3.546q-4.799-5.56331-8.14734-17.09963L437.9165,387.67833l20.4549-5.93578-2.33639-8.05123-20.4549,5.93578L429.58134,358.955a8.81,8.81,0,0,1,.24273-5.26125,7.56223,7.56223,0,0,1,3.79479-4.4039,2.14065,2.14065,0,0,0,1.1094-2.68124l-.12628-.43511a2.0045,2.0045,0,0,0-2.80746-1.5446l-36.7751,10.6717a2.00306,2.00306,0,0,0-1.54454,2.80751Z" transform="translate(-38.5 -38.95803)"/><path d="M472.67741,371.69307a2.02036,2.02036,0,0,0,2.30918,1.453,7.14813,7.14813,0,0,1,5.45347,1.7208,9.24693,9.24693,0,0,1,2.91283,4.345l24.3111,83.77686a9.23025,9.23025,0,0,1-.13441,5.22925,7.13629,7.13629,0,0,1-3.68536,4.37222,2.02582,2.02582,0,0,0-1.17254,2.46391l.12628.43511a2.00159,2.00159,0,0,0,2.80745,1.54454L542.38,466.3622a2.003,2.003,0,0,0,1.54454-2.80745l-.12621-.43511a2.02849,2.02849,0,0,0-2.30883-1.45367,7.54641,7.54641,0,0,1-5.56275-1.6885,8.79285,8.79285,0,0,1-3.02124-4.31355L518.8872,407.35634a78.0785,78.0785,0,0,1-2.11513-10.947,53.77068,53.77068,0,0,1-.0259-13.91192,31.38561,31.38561,0,0,1,4.785-13.18487q3.89664-6.08574,12.38294-8.548,4.35017-1.26243,6.907-.58859a8.00172,8.00172,0,0,1,3.9302,2.16229,11.78273,11.78273,0,0,0,6.3653,22.6895q.10122-.02844.20192-.05859a10.31182,10.31182,0,0,0,6.85136-6.47108,14.69467,14.69467,0,0,0,.67516-9.86855,30.9554,30.9554,0,0,0-3.596-7.92185,20.27546,20.27546,0,0,0-6.17284-6.23056,20.87632,20.87632,0,0,0-8.91372-3.07533,33.65707,33.65707,0,0,0-21.01625,5.62695,51.38485,51.38485,0,0,0-6.56,5.44259,30.0038,30.0038,0,0,0-3.87156,4.54431,18.44953,18.44953,0,0,1-1.06741,1.60741l-2.65208-9.13916-30.89944,8.96669a2.00308,2.00308,0,0,0-1.54457,2.80746Z" transform="translate(-38.5 -38.95803)"/><path d="M602.37678,445.87714a44.27254,44.27254,0,0,0,16.3818-1.67913,43.8245,43.8245,0,0,0,17.24812-9.66843l1.24816,4.30107,30.89938-8.96669a2.00314,2.00314,0,0,0,1.54448-2.80745l-.12628-.43511a2.02836,2.02836,0,0,0-2.30918-1.45352,7.12115,7.12115,0,0,1-5.45338-1.72023,9.203,9.203,0,0,1-2.91277-4.345L640.648,356.21522q-3.031-10.44473-8.70187-15.75911a30.74036,30.74036,0,0,0-12.61946-7.30833A38.03282,38.03282,0,0,0,605.036,331.8684a76.22421,76.22421,0,0,0-13.87,2.60973q-12.8427,3.72669-18.56027,8.80673-5.72362,5.0832-7.55366,9.7415a14.88531,14.88531,0,0,0-1.21178,8.01926q.62049,3.35886.6842,3.57654a11.49993,11.49993,0,0,0,5.56878,6.995,11.76149,11.76149,0,0,0,16.01107-4.50675q.04623-.08259.09127-.166a11.49959,11.49959,0,0,0,.95935-8.88942,11.73131,11.73131,0,0,0-3.99319-6.03719,10.84477,10.84477,0,0,0-6.71722-2.41564,13.05591,13.05591,0,0,1,4.212-4.99675,27.25915,27.25915,0,0,1,9.34993-4.36522q6.3089-1.8308,10.47216-.09324a20.49791,20.49791,0,0,1,6.84687,4.4901,24.84384,24.84384,0,0,1,4.85264,7.77833l4.98157,17.1665a44.62748,44.62748,0,0,0-34.47949,8.42039,40.172,40.172,0,0,0-10.34015,11.52011,39.70055,39.70055,0,0,0-5.06716,14.24711,35.02279,35.02279,0,0,0,1.02429,15.31788,34.301,34.301,0,0,0,7.304,13.38159A39.82619,39.82619,0,0,0,602.377,445.87708Zm-10.87223-57.38582a22.806,22.806,0,0,1,2.61875-8.04795,8.40079,8.40079,0,0,1,4.93379-4.13717q1.51958-.441,4.19724-.98245a12.99316,12.99316,0,0,1,5.86587.29594,18.97731,18.97731,0,0,1,6.70184,3.58123q3.50511,2.74284,6.70184,8.86718l8.11815,27.97535q.58244,6.88718-.9131,11.081a18.91,18.91,0,0,1-3.74477,6.60877,12.89179,12.89179,0,0,1-4.79633,3.39q-2.54784.97684-4.0712,1.417a8.57537,8.57537,0,0,1-6.34945-.74134,21.33119,21.33119,0,0,1-6.48838-5.28706,48.21768,48.21768,0,0,1-6.01894-8.95129,64.79031,64.79031,0,0,1-7.04773-24.28638A48.23612,48.23612,0,0,1,591.50455,388.49132Z" transform="translate(-38.5 -38.95803)"/><path d="M708.6619,320.67131a11.13115,11.13115,0,0,0-.52734,7.93867,11.60833,11.60833,0,0,0,14.26271,8.12918h.00006q.16866-.04622.336-.0975a10.50832,10.50832,0,0,0,6.91453-6.25328,13.81428,13.81428,0,0,0,.73826-9.65127,24.1568,24.1568,0,0,0-12.55884-15.22967q-9.59124-5.00217-24.388-.708a43.8673,43.8673,0,0,0-17.48269,9.67375,47.97471,47.97471,0,0,0-11.6361,15.99839,59.58245,59.58245,0,0,0-4.98974,20.20454,62.57082,62.57082,0,0,0,2.45758,22.28966,64.30887,64.30887,0,0,0,9.74692,20.17437,56.35481,56.35481,0,0,0,14.88955,14.31719,50.30748,50.30748,0,0,0,17.92593,7.3023,40.096,40.096,0,0,0,19.07508-.935,30.98271,30.98271,0,0,0,14.04979-8.08769,39.55953,39.55953,0,0,0,8.07332-12.016,37.76483,37.76483,0,0,0,3.07624-12.571,30.13851,30.13851,0,0,0-.72548-9.81629l-5.005,1.45239a38.38752,38.38752,0,0,1-2.32456,9.87544,28.85341,28.85341,0,0,1-4.93189,7.80166,18.13581,18.13581,0,0,1-8.9255,5.42109,25.49711,25.49711,0,0,1-11.85512.60921,26.81007,26.81007,0,0,1-11.24089-4.99545,41.75762,41.75762,0,0,1-9.59745-10.30889,54.87592,54.87592,0,0,1-6.98876-15.54841,85.09949,85.09949,0,0,1-3.76352-21.91072,49.13214,49.13214,0,0,1,2.03427-16.16169,26.73907,26.73907,0,0,1,6.11836-10.62272,20.02255,20.02255,0,0,1,8.70819-5.358,17.64206,17.64206,0,0,1,6.59444-.85211,12.89888,12.89888,0,0,1,4.1905,1.02515,6.16432,6.16432,0,0,1,2.29516,1.81134,7.97606,7.97606,0,0,1,.84543,1.28794A12.23558,12.23558,0,0,0,708.6619,320.67131Z" transform="translate(-38.5 -38.95803)"/><path d="M928.53805,386.50712A22.237,22.237,0,0,0,925.0996,379.13q-2.08349-2.70265-3.38629-2.32063a30.17047,30.17047,0,0,1-2.85788,8.85121,26.61537,26.61537,0,0,1-5.47947,7.13393,23.66872,23.66872,0,0,1-9.99971,5.37919,43.81979,43.81979,0,0,1-23.121.81133,69.94687,69.94687,0,0,1-20.93712-9.14146,114.1073,114.1073,0,0,1-18.97128-15.3744q-8.96772-8.95434-16.928-18.09057-7.95792-9.13074-15.02588-17.22667a92.60169,92.60169,0,0,0-13.12427-12.70632A76.70057,76.70057,0,0,0,805.4199,316.304a74.20722,74.20722,0,0,0,8.13631-11.79816,50.41028,50.41028,0,0,0,4.80621-11.89333,20.42634,20.42634,0,0,0,.03312-10.86247,17.51817,17.51817,0,0,0-10.117-11.69149,22.37669,22.37669,0,0,0-15.76787-1.08631q-8.70618,2.52642-13.39747,7.89846a39.44923,39.44923,0,0,0-6.91181,10.73483,47.4678,47.4678,0,0,0-2.90035,13.5815l-11.80816-40.69151q29.59048-8.58693,46.72575-20.28287,17.13112-11.69565,24.131-23.75358,6.99657-12.05511,5.07083-23.17658a31.75607,31.75607,0,0,0-10.3793-18.69319q-8.45121-7.57322-22.404-10.1315-13.95613-2.55268-30.92659,2.36848-17.41183,5.05271-26.81168,15.33a59.90692,59.90692,0,0,0-13.304,22.8529,75.5326,75.5326,0,0,0-3.25333,26.18808,160.4678,160.4678,0,0,0,3.06063,25.18179,226.7377,226.7377,0,0,1-24.99507-.768q-13.29048-1.09814-27.00935-2.42521-13.71207-1.32934-27.67959-2.70246-13.96278-1.37228-26.99237-1.95783a240.21353,240.21353,0,0,0-24.74263.10222,95.968,95.968,0,0,0-21.07179,3.40129q-18.93159,5.49377-29.4192,13.25567-10.48607,7.76554-15.04362,16.04432a31.865,31.865,0,0,0-4.305,16.46641,36.47579,36.47579,0,0,0,3.09382,14.31932,28.17351,28.17351,0,0,0,6.93369,9.66619q4.09457,3.53435,7.35588,2.58391-.81986-2.82495-.08352-8.823a33.11964,33.11964,0,0,1,4.8802-12.85829,52.57522,52.57522,0,0,1,12.58-13.55992q8.44108-6.696,22.7998-10.86247a137.8791,137.8791,0,0,1,30.30934-4.90282q16.82177-.98843,35.69282-1.39236,18.87721-.402,39.16357-1.21992a306.51164,306.51164,0,0,0,40.9396-4.44876l.44212,1.52307,34.79327,119.89907a8.79065,8.79065,0,0,1-.24286,5.26072A7.554,7.554,0,0,1,763.007,397.384a2.02582,2.02582,0,0,0-1.17245,2.464l.12628.4351a2.00168,2.00168,0,0,0,2.80754,1.54457l36.77442-10.67157a2.003,2.003,0,0,0,1.54472-2.80746l-.12627-.43511a1.9628,1.9628,0,0,0-2.09165-1.51671,7.54666,7.54666,0,0,1-5.56215-1.68868,8.79292,8.79292,0,0,1-3.02124-4.31355l-12.94489-44.60844a11.58158,11.58158,0,0,1,10.91783,2.25817,49.06384,49.06384,0,0,1,10.08518,11.58263q5.043,7.62142,10.38971,17.51049,5.34835,9.89422,11.80047,19.93273a185.86693,185.86693,0,0,0,14.19364,19.23761,76.22517,76.22517,0,0,0,17.5707,15.42671,56.54268,56.54268,0,0,0,22.16191,8.07868q12.33088,1.84579,27.78239-2.63629,10.00626-2.90387,15.545-7.81373a30.13157,30.13157,0,0,0,7.98555-10.69281,27.67347,27.67347,0,0,0,2.286-11.63373A42.10571,42.10571,0,0,0,928.53805,386.50712ZM755.34589,253.09719l-3.41-11.75083q-2.05872-7.89564-3.73211-18.14475a68.50126,68.50126,0,0,1-.394-20.05749,41.037,41.037,0,0,1,6.72668-17.877q5.44469-8.06591,17.6299-11.60393a24.49633,24.49633,0,0,1,16.17213.85148,32.81744,32.81744,0,0,1,13.5949,9.85621,34.55,34.55,0,0,1,7.19294,15.84326,30.07784,30.07784,0,0,1-2.8169,18.74809q-4.53709,9.57721-16.65216,18.63363-12.1176,9.06237-34.094,15.43828Zm37.33128,56.2878a43.9246,43.9246,0,0,1-5.12139,7.14822,77.48668,77.48668,0,0,1-5.53146,5.73386q-3.78742,3.22276-5.52454,3.72682l-1.51562-5.22275a24.319,24.319,0,0,1,.18761-14.79982,33.47806,33.47806,0,0,1,6.487-11.79133q4.08908-4.60368,8.38213-5.26335,4.28947-.65289,5.80749,4.56655a14.85282,14.85282,0,0,1,.08,7.99865A31.96641,31.96641,0,0,1,792.67717,309.385Z" transform="translate(-38.5 -38.95803)"/></g></svg>