<svg id="Pastrack" xmlns="http://www.w3.org/2000/svg" viewBox="0 0 1043 1043"><defs><style>.cls-1{fill:#ffe43c;}</style></defs><title>logo-pastrack</title><circle id="Circle" class="cls-1" cx="521.5" cy="521.5" r="521.5"/><g id="Title"><path d="M1247.58923,796.42609c5.4889,22.39593,1.3158,29.53192-19.95056,34.29718-1.1864,7.04974-2.39136,14.2099-3.63928,21.62439,16.3114,5.26135,34.99561-.89386,45.21716-14.466,9.82227-13.04175,9.307-37.09686-1.37317-52.41864C1261.089,789.119,1254.28979,792.79926,1247.58923,796.42609Z" transform="translate(-438 -18)"/><path d="M982.2594,853.68011c-1.00848,9.07581-6.09143,14.85578-13.33887,18.61652-8.03674,4.17029-15.35815-.05127-22.556-3.50006l-13.7157,19.22076c17.86908,13.32837,40.321,15.83466,54.13752,6.41224,13.96252-9.52192,21.77484-27.62873,17.71008-41.5232C997.316,853.15625,990.06262,853.40863,982.2594,853.68011Z" transform="translate(-438 -18)"/><path d="M1050.11157,706.08881c.739-.65125.9668-2.43232.7356-3.54956q-3.19336-15.42765,11.832-21.8797a4.41376,4.41376,0,0,0,2.46509-2.6493c1.01269-7.004,1.75586-14.04681,2.6455-21.58776-14.70678.612-26.75659,4.65808-34.01843,17.96991-7.87195,14.43035-9.51269,28.813.22632,43.9284,2.27332-1.58539,4.1449-2.79785,5.91443-4.14435C1043.36646,711.54785,1046.86011,708.95367,1050.11157,706.08881Z" transform="translate(-438 -18)"/><path d="M878.0799,661.441c1.24639.44165,3.33251.701,4.07843.013,4.904-4.52325,9.54693-9.32959,14.422-14.19013-13.435-11.51446-27.6864-12.12957-42.93622-6.37139-14.39325,5.43475-20.33081,16.81518-22.78,31.79107,7.20526.075,13.61212.3581,19.99237.06385a7.02132,7.02132,0,0,0,4.88269-3.01966A18.3723,18.3723,0,0,1,878.0799,661.441Z" transform="translate(-438 -18)"/><path d="M888.67365,778.02222c-.37714-1.13251-1.856-2.60962-2.9231-2.687-7.76593-.56312-15.55481-.80921-24.12213-1.19043,1.29693,6.59832,2.48547,12.645,3.75348,19.09619,8.69568-1.90863,16.79321-3.686,25.52356-5.6023C890.11188,784.04175,889.64777,780.94708,888.67365,778.02222Z" transform="translate(-438 -18)"/><path d="M1162.47852,724.27393a3.83133,3.83133,0,0,0,1.78527,3.02343c3.09156,1.3758,6.3678,2.33643,9.88782,3.56482,2.98706-8.34558,5.77417-16.1325,8.7561-24.46368-6.24279-2.11994-12.04394-4.08985-18.32739-6.22357C1163.79663,708.77734,1163.01563,716.51715,1162.47852,724.27393Z" transform="translate(-438 -18)"/><path d="M989.19159,790.687c-3.39551-5.4613-6.369-10.2439-9.62537-15.48144-7.32971,5.10833-14.05194,9.79321-21.02319,14.65173,3.06244,4.16308,5.69006,7.735,8.48523,11.53473C974.51892,797.77393,981.58221,794.3623,989.19159,790.687Z" transform="translate(-438 -18)"/><path d="M1176.33008,807.01471c-2.61524-3.085-5.64478-5.81879-8.73194-8.88916-5.91223,6.56622-11.313,12.56421-17.35449,19.27386,5.18177,4.07563,9.69336,7.62421,14.36011,11.2948,4.13586-6.3825,7.87427-11.977,11.3772-17.71515C1176.62427,809.92529,1176.95068,807.747,1176.33008,807.01471Z" transform="translate(-438 -18)"/><path d="M1071.58374,749.3c5.34644,1.89953,10.00549,3.55487,14.795,5.25653,3.99183-7.49506,7.70166-14.46094,11.505-21.602-4.688-2.36017-8.69946-4.37976-13.34082-6.71649C1080.12329,734.103,1076.00146,741.43811,1071.58374,749.3Z" transform="translate(-438 -18)"/><path d="M897.76733,698.35968c1.79609,5.07764,3.32843,9.40979,4.97461,14.06366,7.91657-3.04431,15.28821-5.87909,22.95642-8.82794-1.16229-5.14618-2.21807-9.82105-3.4422-15.24127C913.53479,691.91748,905.7652,695.092,897.76733,698.35968Z" transform="translate(-438 -18)"/><path d="M1158.5144,792.96234c.88123-.94116,1.45508-3.37823.86927-4.26086-1.854-2.7934-4.32495-5.17725-6.63819-7.81153-6.61,4.94458-12.94287,9.68177-19.75622,14.77832,3.309,4.52564,6.31054,8.63111,9.70434,13.27289C1148.55115,803.08362,1153.6626,798.14453,1158.5144,792.96234Z" transform="translate(-438 -18)"/><path d="M942.83374,773.40253c3.06995,3.04882,5.74756,5.708,8.94366,8.88214,6.87873-5.27216,13.40467-10.274,20.52381-15.73053-4.32929-4.0224-8.14728-7.56976-12.12885-11.269C954.05273,761.67957,948.57941,767.39874,942.83374,773.40253Z" transform="translate(-438 -18)"/><path d="M1140.15234,761.54065c-7.66369,3.94757-14.95373,7.7027-22.66748,11.67609,3.0835,4.40112,5.72766,8.175,8.5918,12.26287,7.312-4.38861,14.18579-8.51409,21.34876-12.81329C1144.82251,768.68475,1142.5835,765.2597,1140.15234,761.54065Z" transform="translate(-438 -18)"/><path d="M925.67,758.02948c3.622,3.06494,6.6969,5.66681,10.09955,8.54608,5.3689-6.82922,10.31665-13.1228,15.407-19.59759-3.98651-3.52948-7.42492-6.57367-11.21649-9.93061C935.03162,744.28375,930.4433,751.02081,925.67,758.02948Z" transform="translate(-438 -18)"/><path d="M1111.96509,673.86169c-3.67774,7.50361-7.05481,14.39362-10.56153,21.54841,4.666,2.41186,8.73755,4.51647,13.11451,6.7788,3.436-6.40808,6.592-12.29412,9.96728-18.58862C1120.3241,680.36359,1116.42139,677.32794,1111.96509,673.86169Z" transform="translate(-438 -18)"/><path d="M894.44659,798.801c-8.20422,2.33209-16.1491,4.59039-24.78277,7.04449,2.1654,4.803,4.12958,9.15961,6.4223,14.24487,7.92487-3.80444,15.186-7.29034,22.59113-10.84527C897.18286,805.55609,895.89551,802.37787,894.44659,798.801Z" transform="translate(-438 -18)"/><path d="M865.01514,711.043c-7.59577,2.54339-14.74378,4.93689-22.71277,7.60528,2.35754,4.083,4.12292,7.66706,6.43432,10.85529a5.12511,5.12511,0,0,0,4.448,1.65308c5.56323-1.77655,10.9654-4.05719,16.83087-6.31208C868.32648,720.18256,866.76416,715.87048,865.01514,711.043Z" transform="translate(-438 -18)"/><path d="M1184.72021,735.87769c3.33631,1.90216,6.29566,3.58941,9.88611,5.63653,4.66468-7.29034,9.03345-14.11841,13.56433-21.19983-4.94555-2.97131-8.88537-5.33825-13.3291-8.008C1191.32349,720.49951,1188.07825,728.05719,1184.72021,735.87769Z" transform="translate(-438 -18)"/><path d="M1173.27869,834.21918c5.16443,2.498,9.70861,4.696,14.62817,7.0755,2.92371-7.65167,5.55371-14.53473,8.27087-21.64582-3.64074-1.92236-6.94946-3.66943-10.7771-5.69042C1181.385,820.6701,1177.46533,827.22156,1173.27869,834.21918Z" transform="translate(-438 -18)"/><path d="M998.661,815.584c-1.97205-5.59545-3.65173-10.36108-5.42316-15.38714-7.72668,3.39166-14.49719,6.36371-21.37292,9.3819,1.47974,4.122,2.74945,7.65881,4.11987,11.476C983.46954,819.249,990.67822,817.50989,998.661,815.584Z" transform="translate(-438 -18)"/><path d="M1218.31665,759.87811c3.14661,2.97046,5.9707,5.63648,8.963,8.46137,6.14637-4.6485,11.87464-8.98078,17.56775-13.28656-3.59106-4.08954-6.79809-7.74164-10.24194-11.66358C1228.99463,749.06909,1223.80151,754.32587,1218.31665,759.87811Z" transform="translate(-438 -18)"/><path d="M928.44983,853.61047c-4.61585,5.25928-8.76556,9.88184-12.75147,14.64154-.60632.724-1.00366,2.51813-.5614,3.07868,2.69959,3.42187,5.66968,6.63031,8.86774,10.27228,5.443-7.0282,9.9314-12.82386,14.51941-18.74817C934.98315,859.60553,931.95959,856.83112,928.44983,853.61047Z" transform="translate(-438 -18)"/><path d="M1262.87891,775.905c-3.01636-3.435-5.449-6.55719-8.29908-9.235a4.56612,4.56612,0,0,0-4.28369-.35223c-5.16015,3.1546-10.09912,6.67084-15.604,10.38995,2.6206,3.78577,5.1178,7.39338,7.83252,11.31531C1249.3147,783.98059,1255.65027,780.20862,1262.87891,775.905Z" transform="translate(-438 -18)"/><path d="M913.77374,835.27759l-18.2807,14.0329c3.61585,4.11773,6.80469,7.7492,10.20563,11.62225,5.33746-5.48383,10.24658-10.52753,15.37134-15.79279C918.56372,841.75226,916.27338,838.65631,913.77374,835.27759Z" transform="translate(-438 -18)"/><path d="M1212.60693,766.0246a4.11555,4.11555,0,0,0-1.24414-3.11988c-3.5299-3.20623-7.233-6.22174-11.10254-9.49914-.5249,5.70721-.44946,10.79077-1.55249,15.60425-2.04577,8.92773,3.077,13.15,10.24854,17.19671C1210.24768,779.22607,1211.54089,772.64368,1212.60693,766.0246Z" transform="translate(-438 -18)"/><path d="M920.551,830.29333c6.79889-.10668,13.59168-.60223,21.06092-1.00213a61.27973,61.27973,0,0,0-4.06348-6.5238c-1.52869-1.85682-3.31921-4.61707-5.2384-4.83387-7.17084-.81036-14.44123-.74029-22.21466-1.01989,2.27667,3.61193,4.46826,7.3352,6.93744,10.86431C917.83185,828.92,919.37079,830.31183,920.551,830.29333Z" transform="translate(-438 -18)"/><path d="M1004.31976,843.39319c-.93921-5.52789-1.76342-10.37879-2.63488-15.50775-7.6308,1.63714-14.65754,3.14471-21.84369,4.68652.88458,4.11456,1.64447,7.64911,2.538,11.80566C989.78015,844.04553,996.79456,843.73083,1004.31976,843.39319Z" transform="translate(-438 -18)"/><path d="M1199.62109,846.14264c5.45789,1.574,10.15113,2.92761,15.17627,4.37683,1.33374-7.694,2.52979-14.5929,3.738-21.56244-4.17017-1.41962-7.70935-2.62445-11.47327-3.90582C1204.58105,832.08362,1202.23462,838.73474,1199.62109,846.14264Z" transform="translate(-438 -18)"/><path d="M1202.30066,746.71838c3.19934,2.346,5.80627,4.25776,8.66711,6.35559,5.44117-5.80523,10.63062-11.34173,16.3302-17.42266-3.8258-3.15332-7.11438-5.864-10.79455-8.89734C1211.57764,733.678,1207.01294,740.09448,1202.30066,746.71838Z" transform="translate(-438 -18)"/><path d="M907.17291,825.17773c-1.2652-2.54052-2.93219-4.881-4.55145-7.46344-7.36438,3.96729-14.16943,7.63318-21.49933,11.58191,2.76575,4.07355,5.20941,7.67261,7.85211,11.56488,6.24988-4.53363,11.882-8.5343,17.37775-12.71435A3.21794,3.21794,0,0,0,907.17291,825.17773Z" transform="translate(-438 -18)"/><path d="M1068.26025,720.73218c-5.1206,5.75433-9.25561,12.3855-14.03222,19.095,3.646,2.09839,6.72314,3.86944,10.04394,5.7807,4.54676-7.93451,8.7544-15.27734,13.83643-24.146C1073.99707,721.0683,1069.44434,719.40149,1068.26025,720.73218Z" transform="translate(-438 -18)"/><path d="M919.67468,680.59412c-1.587-3.68317-2.97534-6.90528-4.58984-10.65229-8.01465,4.3208-15.4129,8.30927-23.00147,12.40046,1.11744,3.06665,2.03717,5.59075,3.07569,8.441C903.51465,687.31049,911.29889,684.07526,919.67468,680.59412Z" transform="translate(-438 -18)"/><path d="M1181.2666,743.00275c-.16064,1.35791-.323,2.36944-.39306,3.38733-.333,4.83783-.77759,9.6748-.86744,14.51788a5.85427,5.85427,0,0,0,1.67969,3.91669c2.35571,2.21789,5.0481,4.0783,8.24609,6.58532.62574-4.53027,1.17652-8.42059,1.69849-12.31476,1.55872-11.63012,1.55457-11.63128-9.36536-16.07061A4.78367,4.78367,0,0,0,1181.2666,743.00275Z" transform="translate(-438 -18)"/><path d="M890.215,675.12378c6.72223-3.783,13.46759-7.579,21.07141-11.85809-2.91913-3.74952-5.39136-6.92493-8.00067-10.27643-4.30347,3.77893-8.09912,7.00366-11.77216,10.36249C885.89,668.49414,885.926,668.53339,890.215,675.12378Z" transform="translate(-438 -18)"/><path d="M1105.46875,669.54907c-3.3125-1.89319-6.21-3.54919-9.522-5.4422-3.44336,8.03351-6.62928,15.46607-9.98609,23.29724,2.84742,1.50739,5.37781,2.847,8.3844,4.43866C1098.24451,684.02765,1101.77612,676.94977,1105.46875,669.54907Z" transform="translate(-438 -18)"/><path d="M1056.26184,710.78027,1039.08667,725.862c2.8772,2.96912,5.78772,5.97253,8.99988,9.28717,5.13281-6.88837,9.82751-13.18866,14.66369-19.67908C1060.44556,713.8042,1058.66748,712.519,1056.26184,710.78027Z" transform="translate(-438 -18)"/><path d="M953.226,847.33466c-2.72687-3.52625-4.5816-8.42994-7.368-9.03363-6.91632-1.49854-14.25793-1.03406-21.47729-1.3603C932.127,849.4967,936.96533,851.34674,953.226,847.33466Z" transform="translate(-438 -18)"/><path d="M859.06256,694.66681c-8.25415,2.31616-16.11957,4.52325-24.45862,6.86322,1.69837,3.81811,3.05524,6.86847,4.50086,10.11841,8.111-2.86994,15.52343-5.49274,23.1889-8.20508C861.09833,700.19641,860.1618,697.65265,859.06256,694.66681Z" transform="translate(-438 -18)"/><path d="M909.28815,808.50031c6.1875.33276,12.4057.09423,20.20489.06134-3.09765-4.32251-4.87878-9.601-7.96972-10.53229-6.19361-1.866-13.1034-1.355-20.37494-1.87195,1.45672,3.82977,2.18023,6.7569,3.6596,9.23224C905.67841,806.84613,907.70465,808.4151,909.28815,808.50031Z" transform="translate(-438 -18)"/><path d="M1218.28772,770.85309a5.32711,5.32711,0,0,0-.25745,1.00128c-.29126,4.49255-.55932,8.98663-.84472,13.47961-.562,8.85151.13012,10.01752,8.44189,14.16144C1231.07544,785.03534,1228.88965,776.50354,1218.28772,770.85309Z" transform="translate(-438 -18)"/><path d="M1180.59949,797.53906c7.31494-.75567,14.42639-3.48211,21.61853-5.4256l.13586-1.95806c-3.70154-1.74195-7.515-5.11408-11.08008-4.86927-6.42077.44092-12.69275,3.04871-20.69152,5.19879C1174.65869,793.50775,1177.86646,797.82141,1180.59949,797.53906Z" transform="translate(-438 -18)"/><path d="M947.96814,823.19464c2.09259-4.8728,4.13879-9.59167,6.14783-14.32629,3.104-7.31507,2.42865-9.839-4.38617-15.498-1.94074,4.71613-3.84168,9.296-5.71161,13.88867C940.96881,814.74811,941.45282,816.799,947.96814,823.19464Z" transform="translate(-438 -18)"/><path d="M853.1062,681.66516c-7.45911-.67847-14.96277-.86828-23.05524-1.246.724,4.95581,1.3097,8.965,1.96418,13.44507,8.17785-2.57807,15.71-4.95252,24.69781-7.78589C855.18524,684.129,854.24835,681.769,853.1062,681.66516Z" transform="translate(-438 -18)"/><path d="M1222.16675,806.51617c-4.21045-2.63287-7.60864-6.55175-10.65869-6.29736-6.67652.55682-13.17639,3.23071-19.87818,5.07562C1201.04614,816.90143,1210.74683,810.114,1222.16675,806.51617Z" transform="translate(-438 -18)"/><path d="M1075.62476,656.91107c-.64283,7.881-1.40735,15.08216-1.65943,22.30115-.04675,1.33716,1.97363,2.74652,3.66748,4.93213,4.02771-8.57068,7.44727-15.84754,11.16626-23.76148Z" transform="translate(-438 -18)"/><path d="M962.34509,814.70056c-1.86535,4.39447-3.24664,9.04547-5.6781,13.06049-3.98462,6.57965-.96081,11.1878,3.39191,16.30969C964.46155,834.37262,973.07751,825.62,962.34509,814.70056Z" transform="translate(-438 -18)"/><path d="M936.85883,778.45715c-8.42273,13.38611-8.59675,19.92462-.82105,23.9502.23828-.45807.49512-.90869.69794-1.38239q2.04291-4.77063,4.06494-9.55041C944.05627,783.75153,944.0528,783.75006,936.85883,778.45715Z" transform="translate(-438 -18)"/><path d="M1183.73242,777.50751c-7.49585-8.75537-14.145-9.07892-25.6333-.97345,2.85986,2.07647,5.62146,5.72485,8.0315,5.50573C1172.00439,781.50568,1177.71533,779.17908,1183.73242,777.50751Z" transform="translate(-438 -18)"/><path d="M1169.8772,754.72131c.32507-2.911.5758-5.61938.94275-8.312.36682-2.69165.84973-5.36737,1.27221-7.99054-3.72766-1.1499-6.34863-1.95843-9.383-2.89447C1161.24976,750.63031,1160.196,748.294,1169.8772,754.72131Z" transform="translate(-438 -18)"/><path d="M900.44788,785.64087c4.4046,1.38458,9.44018.76172,14.44018.96747-3.359-9.05536-5.88293-10.37189-18.73089-9.4328C897.68622,780.411,898.44312,785.01068,900.44788,785.64087Z" transform="translate(-438 -18)"/><path d="M963.20648,865.38513c-3.6748-11.08386-13.00293-6.78912-19.77136-8.81976C948.59576,862.38165,954.51514,866.41345,963.20648,865.38513Z" transform="translate(-438 -18)"/><path d="M1241.98413,812.68335c1.84522-8.63641-1.43188-15.04755-6.04785-21.28729C1233.39905,802.89978,1234.81848,808.2702,1241.98413,812.68335Z" transform="translate(-438 -18)"/><path d="M1149.14087,757.69c1.40723,3.11157,2.65076,5.86109,3.99646,8.83655,4.18323-1.61932,7.75745-3.003,11.49634-4.45032C1160.45532,756.26514,1155.65308,754.90942,1149.14087,757.69Z" transform="translate(-438 -18)"/><path d="M920.358,766.61426c-3.28509,8.63354-2.94513,10.3385,2.95862,15.46832,1.78992-3.55615,3.54529-7.04364,5.36542-10.65973-2.04053-1.29639-3.61969-2.3465-5.24756-3.31482C922.56787,767.59241,921.617,767.21832,920.358,766.61426Z" transform="translate(-438 -18)"/><path d="M972.86169,843.13568c-7.30706,9.6637-7.61785,11.998-2.40887,18.09491C974.19818,856.45959,975.15155,849.29822,972.86169,843.13568Z" transform="translate(-438 -18)"/><path d="M1237.09766,819.75922c-5.65284-6.099-9.36841-6.02478-19.46827.181C1224.32068,821.50439,1230.39612,822.8877,1237.09766,819.75922Z" transform="translate(-438 -18)"/><path d="M875.73444,703.09467c-6.01062,3.70306-6.03113,3.86511-1.63288,12.022C878.56506,711.82172,879.64734,707.99847,875.73444,703.09467Z" transform="translate(-438 -18)"/><path d="M1092.41553,705.06787c3.90771,4.02277,7.77319,4.186,11.98364-.30823C1096.40186,699.86432,1096.40186,699.86432,1092.41553,705.06787Z" transform="translate(-438 -18)"/><path d="M1094.2749,722.03937c.16162-4.98761-1.50769-8.60449-7.02759-9.30835C1086.11987,719.74939,1087.03,720.95258,1094.2749,722.03937Z" transform="translate(-438 -18)"/><path d="M892.80029,707.43542c-1.90625-8.62408-2.2453-8.90832-8.78448-7.87182C884.08722,705.08215,887.67908,706.87115,892.80029,707.43542Z" transform="translate(-438 -18)"/><path d="M1074.86292,688.27069c-4.8407-.20282-8.462-.35455-12.0835-.50635C1066.17847,693.03113,1069.78979,693.4093,1074.86292,688.27069Z" transform="translate(-438 -18)"/><path d="M862.63153,670.5896c-.45837,4.44208-.824,7.98578-1.1897,11.52948C867.53522,677.79645,867.61066,676.38379,862.63153,670.5896Z" transform="translate(-438 -18)"/><path d="M1078.31152,714.2226c-.87365-3.87488.08838-8.04255-5.12878-8.69623C1070.57678,710.576,1073.02881,712.79547,1078.31152,714.2226Z" transform="translate(-438 -18)"/><path d="M1056.26563,697.85443c2.60424,3.36835,4.74609,6.13886,7.69165,9.94873C1064.43921,699.89221,1063.37427,698.57867,1056.26563,697.85443Z" transform="translate(-438 -18)"/><path d="M886.64435,690.16376c-.61914-5.1413-2.68109-7.75086-8.038-5.75043C878.9516,689.663,882.9256,689.50641,886.64435,690.16376Z" transform="translate(-438 -18)"/><path d="M882.3233,675.51221c-3.587-3.454-6.15136-5.92322-9.71771-9.3573C873.01971,672.90613,875.224,675.79321,882.3233,675.51221Z" transform="translate(-438 -18)"/><path d="M639.93127,412.07477a48.68326,48.68326,0,0,0-17.18249-13.37183q-10.56116-5.09244-25.00745-6.38385-14.44711-1.28778-33.02588,2.572a152.46375,152.46375,0,0,1-2.01934-16.62475,75.3906,75.3906,0,0,1,.83264-18.21741,44.18078,44.18078,0,0,1,5.93762-16.00183,22.02769,22.02769,0,0,1,13.12848-9.67426q7.05515-2.0473,12.19092-.6051a18.64594,18.64594,0,0,1,8.37805,4.70819,18.35694,18.35694,0,0,1,4.60712,7.96936,22.69517,22.69517,0,0,1,.84478,9.06116,18.221,18.221,0,0,1-2.91028,7.98395,11.52069,11.52069,0,0,1-6.62274,4.85437q-4.70736,1.366-7.567.28357a9.985,9.985,0,0,1-4.48639-3.16016,13.06915,13.06915,0,0,1-2.71546-5.84155q-2.116.614-3.04577,3.56122a18.87418,18.87418,0,0,0-.661,6.94836,23.46956,23.46956,0,0,0,2.085,8.06445,19.1566,19.1566,0,0,0,5.49524,7.07416,20.16566,20.16566,0,0,0,9.33374,4.048q5.65494,1.03693,13.65094-1.284a25.51847,25.51847,0,0,0,13.60284-8.91925,29.60464,29.60464,0,0,0,5.97919-14.10163,33.91867,33.91867,0,0,0-1.62915-15.71771,31.6081,31.6081,0,0,0-8.91925-13.60278,34.503,34.503,0,0,0-15.89154-7.75433q-9.68124-2.16276-22.61334,1.58966a53.58793,53.58793,0,0,0-20.57422,10.8153,58.4749,58.4749,0,0,0-13.4375,16.90271,67.88167,67.88167,0,0,0-6.93274,21.26245,99.86909,99.86909,0,0,0-.84589,23.83057,113.847,113.847,0,0,0-27.02881,16.0025,87.82889,87.82889,0,0,0-21.03656,23.95276,84.58972,84.58972,0,0,0-10.91351,31.21411q-2.60175,17.33268,3.19983,37.31751,4.70892,16.22717,11.8612,25.4978,7.14982,9.27393,15.27619,13.54285a34.35172,34.35172,0,0,0,15.91083,4.30694,35.65672,35.65672,0,0,0,13.9317-2.51336,21.99524,21.99524,0,0,0,9.37372-6.79938q3.22521-4.247,1.99987-8.48474a45.74126,45.74126,0,0,1-21.13385-2.53607,51.998,51.998,0,0,1-8.74658-4.21906,38.45583,38.45583,0,0,1-8.55554-7.07879,58.861,58.861,0,0,1-7.67932-10.64722,66.32921,66.32921,0,0,1-6.048-14.69129,71.46577,71.46577,0,0,1-2.69312-29.05029,73.73762,73.73762,0,0,1,7.73285-25.19165,72.73355,72.73355,0,0,1,15.35651-20.00934,83.02045,83.02045,0,0,1,19.87243-13.6712,148.793,148.793,0,0,0,4.45838,20.63428l-.1673.3031,46.33771,159.681A65.634,65.634,0,0,1,593.4397,606.343a63.03972,63.03972,0,0,1-2.41059,18.92993,49.67329,49.67329,0,0,1-8.69195,17.05572,31.53665,31.53665,0,0,1-16.62189,10.81562q-10.351,3.00375-18.49829.39612a33.19064,33.19064,0,0,1-13.74072-8.25147,36.00246,36.00246,0,0,1-8.38068-13.50391,38.85248,38.85248,0,0,1-2.38379-15.24414,26.71552,26.71552,0,0,1,4.485-13.54034,20.83289,20.83289,0,0,1,12.07391-8.47559q8.4657-2.45663,13.07044.66913a18.12192,18.12192,0,0,1,6.69342,8.129,27.84277,27.84277,0,0,1,2.1947,10.19952q.10281,5.19353-.72913,6.71351,8.433-2.44711,12.69776-7.89155a22.715,22.715,0,0,0,4.89923-12.00347,29.56834,29.56834,0,0,0-9.94654-24.65094,31.45942,31.45942,0,0,0-13.14257-6.76734q-7.68522-1.97736-17.31977.81915-14.1102,4.09461-21.93994,14.01593a46.43716,46.43716,0,0,0-9.69757,21.9372,54.22732,54.22732,0,0,0,1.79852,24.21045,49.94114,49.94114,0,0,0,12.49884,21.10528q8.83082,8.91129,22.52124,12.58765,13.68759,3.67722,31.5539-1.50738,15.69744-4.55522,25.694-13.44825a55.50013,55.50013,0,0,0,14.85821-21.012,70.29522,70.29522,0,0,0,4.74207-27.0011,115.15673,115.15673,0,0,0-4.83533-31.106l-17.81171-61.3797a107.57737,107.57737,0,0,0,25.472-10.96106,68.23673,68.23673,0,0,0,19.09692-16.63336,51.47268,51.47268,0,0,0,9.94989-22.138q2.40656-12.42241-1.96228-27.47772A53.91037,53.91037,0,0,0,639.93127,412.07477Zm-14.29376,51.82855a49.27619,49.27619,0,0,1-6.25494,18.643,41.06252,41.06252,0,0,1-11.37781,12.481,43.46677,43.46677,0,0,1-12.84521,6.53186l-28.0481-96.65466-.75073-2.5871q13.37923-1.58733,22.97375.98249a44.74045,44.74045,0,0,1,16.42,7.98376,44.0415,44.0415,0,0,1,11.004,12.74268,69.58384,69.58384,0,0,1,6.43073,15.09Q627.21668,452.9949,625.63751,463.90332Z" transform="translate(-438 -18)"/><path d="M776.20142,536.73431a2.19236,2.19236,0,0,0-2.49579-1.57092,7.69548,7.69548,0,0,1-5.89356-1.85913,9.94557,9.94557,0,0,1-3.148-4.6958l-19.72259-67.96454q-3.27558-11.28808-9.40436-17.03143a33.22137,33.22137,0,0,0-13.63825-7.89838,41.10216,41.10216,0,0,0-15.44445-1.38275,82.38375,82.38375,0,0,0-14.98981,2.82043q-13.87939,4.02759-20.05872,9.51783-6.18576,5.49352-8.16345,10.52795-1.97964,5.0387-1.30963,8.66669.67053,3.63006.73944,3.86529a12.42821,12.42821,0,0,0,6.01837,7.55982,12.711,12.711,0,0,0,17.40235-5.05,12.42808,12.42808,0,0,0,1.03674-9.60712,12.67723,12.67723,0,0,0-4.31549-6.52453,11.72029,11.72029,0,0,0-7.25952-2.61066,14.11086,14.11086,0,0,1,4.55206-5.40015,29.4625,29.4625,0,0,1,10.1048-4.71765q6.8183-1.97854,11.31762-.10077a22.15239,22.15239,0,0,1,7.39966,4.85266,26.84488,26.84488,0,0,1,5.24439,8.40632l5.38373,18.55236a48.23046,48.23046,0,0,0-37.263,9.10022,43.41441,43.41441,0,0,0-11.17511,12.4502,42.90454,42.90454,0,0,0-5.4762,15.39734,37.8506,37.8506,0,0,0,1.10693,16.55462,37.07074,37.07074,0,0,0,7.89368,14.46192,43.04278,43.04278,0,0,0,28.93738,14.4906A47.84667,47.84667,0,0,0,721.285,555.73a47.36246,47.36246,0,0,0,18.64063-10.449l1.34888,4.64832,33.394-9.69061a2.16489,2.16489,0,0,0,1.66925-3.03412Zm-43.06018.54364a20.43522,20.43522,0,0,1-4.04718,7.14234,13.932,13.932,0,0,1-5.1836,3.66363q-2.75344,1.05579-4.39984,1.53138a9.26781,9.26781,0,0,1-6.86206-.80121,23.05316,23.05316,0,0,1-7.01221-5.71393,52.10922,52.10922,0,0,1-6.50488-9.67395,70.0226,70.0226,0,0,1-7.61664-26.24713,52.12053,52.12053,0,0,1,.316-11.65326,24.64813,24.64813,0,0,1,2.83008-8.69769,9.07872,9.07872,0,0,1,5.33209-4.4712q1.64237-.47652,4.53613-1.0617a14.04172,14.04172,0,0,1,6.33954.31976,20.51029,20.51029,0,0,1,7.24292,3.87042q3.78846,2.96421,7.24292,9.583l8.77356,30.23395Q734.75757,532.74561,733.14124,537.278Z" transform="translate(-438 -18)"/><path d="M847.64075,507.46149a40.96747,40.96747,0,0,0,5.77459-14.80664,35.62587,35.62587,0,0,0-.97662-16.54511q-3.07095-10.58267-9.14667-15.70373a34.38675,34.38675,0,0,0-13.39947-7.07563A62.9144,62.9144,0,0,0,814.63,451.25745q-7.93972-.11628-14.88714-.77936a39.742,39.742,0,0,1-12.20508-2.9596q-5.25658-2.29924-7.09955-8.64917a16.03024,16.03024,0,0,1,1.99683-13.32818q3.97375-6.50721,14.3233-9.5105,7.05505-2.04739,11.90241-1.15949a17.82815,17.82815,0,0,1,8.59411,4.13569,13.51147,13.51147,0,0,0-2.95837.34863,12.11293,12.11293,0,0,0-7.64356,6.16968,12.73081,12.73081,0,0,0-.96838,9.84259,12.42934,12.42934,0,0,0,6.01856,7.56036,12.71094,12.71094,0,0,0,17.40234-5.05,12.42933,12.42933,0,0,0,1.03656-9.60766q-3.54758-12.225-13.84918-18.29139-10.30335-6.05712-27.23316-1.14831a50.1232,50.1232,0,0,0-15.79584,7.512,38.96838,38.96838,0,0,0-10.354,10.88849,32.39507,32.39507,0,0,0-4.62738,13.04761,34.80664,34.80664,0,0,0,1.20972,14.27447q3.06445,10.56025,9.01935,15.70459a36.13471,36.13471,0,0,0,13.22644,7.35676,62.92,62.92,0,0,0,15.04174,2.63128q7.77009.41665,14.59961,1.10559a40.22216,40.22216,0,0,1,11.93207,2.89624,11.86694,11.86694,0,0,1,6.80457,8.07245,15.18209,15.18209,0,0,1,.26007,7.0484,19.95109,19.95109,0,0,1-3.08362,7.38434,27.276,27.276,0,0,1-6.585,6.74335,32.74993,32.74993,0,0,1-10.54206,4.96771q-10.11419,2.9351-16.35675.7464a23.6934,23.6934,0,0,1-10.00335-6.35553,14.57554,14.57554,0,0,0,5.74969-.39362,12.734,12.734,0,1,0-7.09747-24.45807,12.74586,12.74586,0,0,0-8.27673,7.50135q-2.33918,4.25318-1.02912,11.39026a25.13256,25.13256,0,0,0,6.96594,13.02172q5.65677,5.88264,15.86109,8.52887,10.19925,2.6511,25.48865-1.78723a47.35271,47.35271,0,0,0,15.055-7.4284A44.08973,44.08973,0,0,0,847.64075,507.46149Z" transform="translate(-438 -18)"/><path d="M821.77026,363.387a2.26346,2.26346,0,0,0,2.32849,1.874,8.18154,8.18154,0,0,1,6.01185,1.82483,9.52084,9.52084,0,0,1,3.26525,4.66235l6.48322,22.34119L827.3949,397.7063l2.525,8.70117,12.46417-3.61694,17.19739,59.26281a121.118,121.118,0,0,0,7.15851,18.95807A46.92826,46.92826,0,0,0,876.839,495.16388a29.69349,29.69349,0,0,0,13.73718,7.35986q7.79461,1.82034,18.37665-1.25287a28.439,28.439,0,0,0,10.95837-5.72973,24.36009,24.36009,0,0,0,6.50611-8.77222,28.63647,28.63647,0,0,0,2.31134-10.48743,35.03514,35.03514,0,0,0-1.39075-10.94268,13.45258,13.45258,0,0,0-6.189-8.14771,11.93935,11.93935,0,0,0-9.79316-1.238,12.42944,12.42944,0,0,0-7.56042,6.01855,12.71243,12.71243,0,0,0,5.05,17.40234,12.42943,12.42943,0,0,0,9.60772,1.03656,10.34051,10.34051,0,0,0,1.61206-.59478q.67164-.321,1.54364-.83075a17.83918,17.83918,0,0,1-3.64563,5.01013,14.69838,14.69838,0,0,1-6.37615,3.50738q-7.52967,2.185-12.71357-3.83233-5.18646-6.01245-8.80511-18.48017l-20.40485-70.31573,22.10633-6.415-2.525-8.70123-22.10632,6.415L860.65527,363.832a9.52109,9.52109,0,0,1,.26233-5.686,8.17277,8.17277,0,0,1,4.10114-4.75947,2.31348,2.31348,0,0,0,1.199-2.8977l-.13647-.47022a2.16637,2.16637,0,0,0-3.03412-1.66931L823.303,359.88257a2.16472,2.16472,0,0,0-1.66925,3.03418Z" transform="translate(-438 -18)"/><path d="M907.23071,377.59839a2.18348,2.18348,0,0,0,2.49561,1.57031,7.72533,7.72533,0,0,1,5.89374,1.85974,9.9941,9.9941,0,0,1,3.148,4.6958l26.27386,90.54059a9.97578,9.97578,0,0,1-.14526,5.65143,7.71253,7.71253,0,0,1-3.98291,4.72522,2.18939,2.18939,0,0,0-1.26722,2.66284l.13648.47022a2.16325,2.16325,0,0,0,3.03412,1.66925l39.74359-11.53315a2.16466,2.16466,0,0,0,1.66925-3.03411l-.13641-.47022a2.19225,2.19225,0,0,0-2.49524-1.571,8.15569,8.15569,0,0,1-6.01184-1.82483,9.50246,9.50246,0,0,1-3.26514-4.66181l-15.15009-52.2077a84.3862,84.3862,0,0,1-2.28589-11.83075,58.11085,58.11085,0,0,1-.028-15.03509,33.91921,33.91921,0,0,1,5.17127-14.24939q4.21123-6.57707,13.38269-9.23816,4.7014-1.36432,7.46466-.63611a8.64746,8.64746,0,0,1,4.24749,2.33685,12.734,12.734,0,1,0,7.09742,24.458,11.14448,11.14448,0,0,0,7.40448-6.99353,15.881,15.881,0,0,0,.72967-10.66528,33.45111,33.45111,0,0,0-3.88629-8.56141,21.91256,21.91256,0,0,0-6.67126-6.73358,22.56167,22.56167,0,0,0-9.63337-3.32361,36.37444,36.37444,0,0,0-22.713,6.08124,55.53072,55.53072,0,0,0-7.0896,5.882,32.42627,32.42627,0,0,0-4.18414,4.91119,19.93934,19.93934,0,0,1-1.15357,1.73719l-2.86621-9.877-33.3941,9.69062a2.16466,2.16466,0,0,0-1.66925,3.03411Z" transform="translate(-438 -18)"/><path d="M1047.40137,457.77173a47.84654,47.84654,0,0,0,17.70434-1.8147,47.36285,47.36285,0,0,0,18.64063-10.449l1.34887,4.64831,33.39405-9.69061a2.16488,2.16488,0,0,0,1.66919-3.03412l-.13648-.47028a2.19213,2.19213,0,0,0-2.4956-1.57086,7.69607,7.69607,0,0,1-5.89368-1.85913,9.94615,9.94615,0,0,1-3.14795-4.6958l-19.72253-67.9646q-3.27576-11.288-9.40442-17.03143a33.22186,33.22186,0,0,0-13.63831-7.89838,41.103,41.103,0,0,0-15.44433-1.38269,82.37648,82.37648,0,0,0-14.98987,2.82044q-13.87958,4.02758-20.05872,9.51776-6.18576,5.49361-8.16351,10.528-1.97955,5.03869-1.30963,8.66669.67053,3.63006.73944,3.86529a12.42838,12.42838,0,0,0,6.01837,7.55982,12.711,12.711,0,0,0,17.40234-5.05,12.42808,12.42808,0,0,0,1.03687-9.60712,12.67843,12.67843,0,0,0-4.31555-6.52453,11.72019,11.72019,0,0,0-7.25952-2.61066,14.10979,14.10979,0,0,1,4.55206-5.40015,29.46075,29.46075,0,0,1,10.1048-4.71765q6.81829-1.97854,11.31762-.10077a22.15288,22.15288,0,0,1,7.39966,4.8526,26.84952,26.84952,0,0,1,5.24439,8.40632l5.38379,18.55242a48.23058,48.23058,0,0,0-37.26319,9.10022,43.41513,43.41513,0,0,0-11.175,12.4502,42.90422,42.90422,0,0,0-5.47625,15.39734,37.85125,37.85125,0,0,0,1.107,16.55456,37.07085,37.07085,0,0,0,7.89368,14.462,43.04166,43.04166,0,0,0,28.93744,14.49054Zm-11.75-62.01886a24.64851,24.64851,0,0,1,2.8302-8.69769,9.07879,9.07879,0,0,1,5.33215-4.4712q1.64227-.47661,4.53613-1.06176a14.04238,14.04238,0,0,1,6.33948.31982,20.50908,20.50908,0,0,1,7.24292,3.87036q3.78826,2.9643,7.24292,9.58307l8.77356,30.23395q.62952,7.44324-.98682,11.97558a20.43783,20.43783,0,0,1-4.04712,7.14234,13.93234,13.93234,0,0,1-5.18359,3.66363q-2.75353,1.05579-4.3999,1.53138a9.26775,9.26775,0,0,1-6.86206-.80121,23.05316,23.05316,0,0,1-7.01221-5.71393,52.10827,52.10827,0,0,1-6.50488-9.67395,70.02122,70.02122,0,0,1-7.6167-26.24713A52.13506,52.13506,0,0,1,1035.65137,395.75287Z" transform="translate(-438 -18)"/><path d="M1162.26746,322.4574a12.0303,12.0303,0,0,0-.57,8.57959,12.54564,12.54564,0,0,0,15.77747,8.68011,11.35676,11.35676,0,0,0,7.47277-6.75818,14.92965,14.92965,0,0,0,.79786-10.43048,26.10725,26.10725,0,0,0-13.57276-16.45923q-10.3656-5.406-26.35693-.76519a47.40857,47.40857,0,0,0-18.89417,10.45477,51.84816,51.84816,0,0,0-12.57556,17.29,64.393,64.393,0,0,0-5.39258,21.83575,67.62365,67.62365,0,0,0,2.656,24.08924,69.49873,69.49873,0,0,0,10.53381,21.80316,60.90348,60.90348,0,0,0,16.09168,15.47308,54.36968,54.36968,0,0,0,19.37317,7.89185,43.33263,43.33263,0,0,0,20.61511-1.01044,33.48391,33.48391,0,0,0,15.18408-8.74066,42.75416,42.75416,0,0,0,8.7251-12.98609,40.8134,40.8134,0,0,0,3.32458-13.58587,32.57093,32.57093,0,0,0-.784-10.60883l-5.40906,1.56964a41.4867,41.4867,0,0,1-2.51221,10.67273,31.18452,31.18452,0,0,1-5.33008,8.43152,19.5994,19.5994,0,0,1-9.64612,5.85877,27.55525,27.55525,0,0,1-12.81225.65838,28.97492,28.97492,0,0,1-12.14844-5.39874,45.13064,45.13064,0,0,1-10.37231-11.14117,59.30766,59.30766,0,0,1-7.553-16.80365,91.96916,91.96916,0,0,1-4.06738-23.67969,53.09852,53.09852,0,0,1,2.19848-17.46649,28.89792,28.89792,0,0,1,6.61231-11.48035,21.63861,21.63861,0,0,1,9.41125-5.79059,19.06582,19.06582,0,0,1,7.12683-.9209,13.94042,13.94042,0,0,1,4.52881,1.10791,6.66218,6.66218,0,0,1,2.48047,1.95758,8.61687,8.61687,0,0,1,.9137,1.39191A13.22338,13.22338,0,0,0,1162.26746,322.4574Z" transform="translate(-438 -18)"/><path d="M1399.89526,393.60846a24.03344,24.03344,0,0,0-3.71606-7.97272q-2.25183-2.92089-3.65967-2.508a32.60549,32.60549,0,0,1-3.08862,9.56579,28.765,28.765,0,0,1-5.92188,7.7099,25.57926,25.57926,0,0,1-10.807,5.81348,47.35769,47.35769,0,0,1-24.98767.87683,75.59385,75.59385,0,0,1-22.62745-9.87952,123.31838,123.31838,0,0,1-20.50293-16.61566q-9.69177-9.67731-18.29467-19.55108-8.60047-9.86793-16.239-18.6175a100.07756,100.07756,0,0,0-14.18383-13.73218,82.88673,82.88673,0,0,0,10.9707-10.96038,80.20236,80.20236,0,0,0,8.79321-12.75067,54.47669,54.47669,0,0,0,5.19421-12.85352,22.075,22.075,0,0,0,.03577-11.73944,18.9327,18.9327,0,0,0-10.93371-12.63544,24.18313,24.18313,0,0,0-17.0409-1.174q-9.409,2.73038-14.47912,8.53613a42.63328,42.63328,0,0,0-7.46985,11.6015,51.30025,51.30025,0,0,0-3.13452,14.678l-12.76148-43.97674q31.97955-9.28016,50.49817-21.92041,18.514-12.63987,26.07922-25.67133,7.56153-13.02841,5.48023-25.04773a34.32026,34.32026,0,0,0-11.21729-20.20239q-9.13348-8.18463-24.21277-10.94946-15.08293-2.75877-33.42346,2.55969-18.81756,5.46066-28.97632,16.56763a64.74187,64.74187,0,0,0-14.37805,24.69793,81.6282,81.6282,0,0,0-3.516,28.30237,173.41851,173.41851,0,0,0,3.30774,27.21485,245.04152,245.04152,0,0,1-27.01306-.83q-14.36352-1.1868-29.18994-2.621-14.8191-1.43665-29.91431-2.92066-15.09009-1.48307-29.17163-2.1159a259.612,259.612,0,0,0-26.74023.11047,103.71574,103.71574,0,0,0-22.773,3.6759q-20.46,5.9373-31.79438,14.32587-11.33267,8.39245-16.25817,17.33966a34.43753,34.43753,0,0,0-4.65259,17.79584,39.4211,39.4211,0,0,0,3.34356,15.4754,30.44808,30.44808,0,0,0,7.49347,10.4466q4.42512,3.81966,7.94977,2.79254-.886-3.053-.09027-9.53534a35.79291,35.79291,0,0,1,5.27429-13.89642q4.48014-7.41981,13.59558-14.65467,9.12259-7.2366,24.64045-11.73944a149.00932,149.00932,0,0,1,32.75634-5.29864q18.17982-1.06824,38.57447-1.50476,20.40125-.43452,42.32544-1.31843a331.25492,331.25492,0,0,0,44.24487-4.80792l.47778,1.64606,37.6023,129.5791a9.50082,9.50082,0,0,1-.26245,5.68543A8.164,8.164,0,0,1,1221,405.36346a2.18941,2.18941,0,0,0-1.26709,2.66291l.13647.47021a2.16329,2.16329,0,0,0,3.03418,1.66925l39.74341-11.53314a2.16474,2.16474,0,0,0,1.66944-3.03412l-.13648-.47027a2.12127,2.12127,0,0,0-2.2605-1.63916,8.15585,8.15585,0,0,1-6.01123-1.825,9.50243,9.50243,0,0,1-3.26513-4.6618l-13.99-48.2099a12.51653,12.51653,0,0,1,11.79931,2.44049,53.02529,53.02529,0,0,1,10.89942,12.51776q5.45013,8.23672,11.22851,18.9242,5.7801,10.693,12.75318,21.542a200.87049,200.87049,0,0,0,15.3396,20.79077,82.37936,82.37936,0,0,0,18.98925,16.67218,61.10783,61.10783,0,0,0,23.95118,8.7309q13.32641,1.99483,30.02539-2.84913,10.8142-3.13824,16.8-8.44458a32.56291,32.56291,0,0,0,8.63025-11.55609,29.90819,29.90819,0,0,0,2.47058-12.573A45.50364,45.50364,0,0,0,1399.89526,393.60846Zm-187.1748-144.18079-3.6853-12.69952q-2.22492-8.53308-4.03345-19.60968a74.0292,74.0292,0,0,1-.42578-21.67682,44.34884,44.34884,0,0,1,7.26977-19.32037q5.88427-8.7171,19.05323-12.54077a26.474,26.474,0,0,1,17.47778.92022,35.46682,35.46682,0,0,1,14.6925,10.652,37.33983,37.33983,0,0,1,7.77369,17.12238q1.85613,9.91936-3.04432,20.26172-4.90338,10.35039-17.99658,20.138-13.09588,9.794-36.84668,16.68469Zm40.34521,60.83222a47.46644,47.46644,0,0,1-5.53491,7.72534,83.72438,83.72438,0,0,1-5.978,6.19678q-4.09314,3.48294-5.97058,4.02771l-1.63794-5.64441a26.28261,26.28261,0,0,1,.20276-15.99469,36.18,36.18,0,0,1,7.01074-12.74329q4.41925-4.97534,9.05884-5.68829,4.63569-.7056,6.27637,4.93524a16.0516,16.0516,0,0,1,.08643,8.64441A34.547,34.547,0,0,1,1253.06567,310.25989Z" transform="translate(-438 -18)"/></g></svg>